<svg width="24" height="24" viewBox="0 0 24 24" fill="none" xmlns="http://www.w3.org/2000/svg">
<mask id="mask0_6917_10897" style="mask-type:alpha" maskUnits="userSpaceOnUse" x="0" y="0" width="24" height="24">
<rect width="24" height="24" fill="#D9D9D9"/>
</mask>
<g mask="url(#mask0_6917_10897)">
<path d="M3.5 18.0883V16.2361C3.5 15.8067 3.61083 15.4235 3.83248 15.0865C4.05412 14.7495 4.35012 14.4873 4.72048 14.2999C5.5123 13.9126 6.3085 13.614 7.10909 13.4041C7.90969 13.1942 8.7896 13.0893 9.74883 13.0893C10.7081 13.0893 11.588 13.1942 12.3886 13.4041C13.1892 13.614 13.9854 13.9126 14.7772 14.2999C15.1475 14.4873 15.4435 14.7495 15.6652 15.0865C15.8868 15.4235 15.9976 15.8067 15.9976 16.2361V18.0883H3.5ZM17.664 18.0883V16.1336C17.664 15.5867 17.5301 15.0655 17.2623 14.5699C16.9945 14.0744 16.6146 13.6492 16.1227 13.2944C16.6813 13.3777 17.2116 13.5067 17.7137 13.6813C18.2157 13.856 18.6948 14.0624 19.1509 14.3006C19.5814 14.5302 19.9138 14.8009 20.1483 15.1126C20.3828 15.4243 20.5 15.7646 20.5 16.1336V18.0883H17.664ZM9.74883 11.7433C8.94691 11.7433 8.26041 11.4578 7.68933 10.8867C7.11826 10.3157 6.83272 9.62917 6.83272 8.82724C6.83272 8.02531 7.11826 7.33881 7.68933 6.76775C8.26041 6.19667 8.94691 5.91113 9.74883 5.91113C10.5508 5.91113 11.2373 6.19667 11.8083 6.76775C12.3794 7.33881 12.6649 8.02531 12.6649 8.82724C12.6649 9.62917 12.3794 10.3157 11.8083 10.8867C11.2373 11.4578 10.5508 11.7433 9.74883 11.7433ZM16.9429 8.82724C16.9429 9.62917 16.6574 10.3157 16.0863 10.8867C15.5153 11.4578 14.8288 11.7433 14.0268 11.7433C13.9328 11.7433 13.8132 11.7327 13.6679 11.7113C13.5227 11.6899 13.403 11.6664 13.3091 11.6408C13.6376 11.2458 13.8901 10.8076 14.0666 10.3261C14.2431 9.84467 14.3313 9.34472 14.3313 8.82624C14.3313 8.30778 14.2413 7.80981 14.0613 7.33233C13.8813 6.85486 13.6306 6.41531 13.3091 6.01368C13.4287 5.97095 13.5483 5.94318 13.6679 5.93036C13.7876 5.91754 13.9072 5.91113 14.0268 5.91113C14.8288 5.91113 15.5153 6.19667 16.0863 6.76775C16.6574 7.33881 16.9429 8.02531 16.9429 8.82724ZM4.74975 16.8386H14.7479V16.2361C14.7479 16.062 14.7044 15.9071 14.6173 15.7714C14.5303 15.6358 14.3922 15.5172 14.2031 15.4157C13.5174 15.0622 12.8113 14.7943 12.0849 14.6122C11.3586 14.4301 10.5799 14.339 9.74883 14.339C8.91779 14.339 8.13908 14.4301 7.41272 14.6122C6.68637 14.7943 5.9803 15.0622 5.29452 15.4157C5.10546 15.5172 4.9674 15.6358 4.88033 15.7714C4.79328 15.9071 4.74975 16.062 4.74975 16.2361V16.8386ZM9.74883 10.4936C10.2071 10.4936 10.5994 10.3304 10.9257 10.0041C11.252 9.67778 11.4152 9.28549 11.4152 8.82724C11.4152 8.36899 11.252 7.9767 10.9257 7.65038C10.5994 7.32405 10.2071 7.16088 9.74883 7.16088C9.29058 7.16088 8.89829 7.32405 8.57196 7.65038C8.24563 7.9767 8.08247 8.36899 8.08247 8.82724C8.08247 9.28549 8.24563 9.67778 8.57196 10.0041C8.89829 10.3304 9.29058 10.4936 9.74883 10.4936Z" fill="#14142B"/>
</g>
</svg>
