<svg width="24" height="24" viewBox="0 0 24 24" fill="none" xmlns="http://www.w3.org/2000/svg">
<mask id="mask0_6917_10909" style="mask-type:alpha" maskUnits="userSpaceOnUse" x="0" y="0" width="24" height="24">
<rect width="24" height="24" fill="#D9D9D9"/>
</mask>
<g mask="url(#mask0_6917_10909)">
<path d="M16.7733 17.7027V14.897H13.9676V13.476H16.7733V10.6703H18.1943V13.476H21V14.897H18.1943V17.7027H16.7733ZM10.8704 14.897H7.2996C6.11004 14.897 5.09606 14.4778 4.25763 13.6395C3.41921 12.8012 3 11.7874 3 10.5979C3 9.40854 3.41921 8.3945 4.25763 7.55584C5.09606 6.71718 6.11004 6.29785 7.2996 6.29785H10.8704V7.71886H7.2996C6.50404 7.71886 5.82539 7.99973 5.26365 8.56148C4.7019 9.12322 4.42103 9.80187 4.42103 10.5974C4.42103 11.393 4.7019 12.0716 5.26365 12.6334C5.82539 13.1951 6.50404 13.476 7.2996 13.476H10.8704V14.897ZM8.44738 11.3079V9.88692H15.5526V11.3079H8.44738ZM21 10.5974H19.579C19.579 9.80187 19.2981 9.12322 18.7364 8.56148C18.1746 7.99973 17.496 7.71886 16.7004 7.71886H13.1296V6.29785H16.7004C17.89 6.29785 18.9039 6.71706 19.7424 7.55546C20.5808 8.39389 21 9.40787 21 10.5974Z" fill="#14142B"/>
</g>
</svg>
