<svg width="32" height="32" viewBox="0 0 32 32" fill="none" xmlns="http://www.w3.org/2000/svg">
<rect x="0.5" y="0.5" width="31" height="31" rx="4.5" stroke="#14142B"/>
<g clip-path="url(#clip0_1095_14819)">
<path d="M10.1967 11.1966C10.5711 10.8222 11.1781 10.8222 11.5524 11.1966L14.9418 14.5859C15.3006 14.9448 15.6994 14.9448 16.0582 14.5859L19.4476 11.1966C19.8219 10.8222 20.4289 10.8222 20.8033 11.1966C21.1777 11.571 21.1777 12.178 20.8033 12.5523L17.3741 15.9815C17.0152 16.3404 17.0152 16.7392 17.3741 17.098L20.8232 20.5472C21.1866 20.9105 21.1866 21.4997 20.8232 21.863C20.4599 22.2264 19.8707 22.2264 19.5074 21.863L16.0184 18.374C15.6595 18.0151 15.2608 18.0151 14.9019 18.374L11.5126 21.7633C11.1382 22.1377 10.5312 22.1377 10.1568 21.7633C9.78245 21.389 9.78245 20.782 10.1568 20.4076L13.5462 17.0183C13.905 16.6594 13.905 16.2607 13.5462 15.9018L10.1967 12.5523C9.82232 12.178 9.82232 11.571 10.1967 11.1966Z" fill="#14142B"/>
</g>
<defs>
<clipPath id="clip0_1095_14819">
<rect width="15" height="15" fill="white" transform="translate(15.5 5.89331) rotate(45)"/>
</clipPath>
</defs>
</svg>
