<svg width="24" height="24" viewBox="0 0 24 24" fill="none" xmlns="http://www.w3.org/2000/svg">
<mask id="mask0_6917_10903" style="mask-type:alpha" maskUnits="userSpaceOnUse" x="0" y="0" width="24" height="24">
<rect width="24" height="24" fill="#D9D9D9"/>
</mask>
<g mask="url(#mask0_6917_10903)">
<path d="M5.11742 18.7101C4.66546 18.7101 4.2829 18.5535 3.96974 18.2404C3.65658 17.9272 3.5 17.5446 3.5 17.0927V6.90648C3.5 6.45452 3.65658 6.07196 3.96974 5.7588C4.2829 5.44564 4.66546 5.28906 5.11742 5.28906H18.8826C19.3345 5.28906 19.7171 5.44564 20.0303 5.7588C20.3434 6.07196 20.5 6.45452 20.5 6.90648V17.0927C20.5 17.5446 20.3434 17.9272 20.0303 18.2404C19.7171 18.5535 19.3345 18.7101 18.8826 18.7101H5.11742ZM12 12.4985L4.84209 7.92161V17.0927C4.84209 17.173 4.8679 17.239 4.91953 17.2906C4.97115 17.3422 5.03712 17.368 5.11742 17.368H18.8826C18.9629 17.368 19.0288 17.3422 19.0805 17.2906C19.1321 17.239 19.1579 17.173 19.1579 17.0927V7.92161L12 12.4985ZM12 11.1048L19.0203 6.63115H4.97974L12 11.1048ZM4.84209 7.92161V6.63115V17.0927C4.84209 17.173 4.8679 17.239 4.91953 17.2906C4.97115 17.3422 5.03712 17.368 5.11742 17.368H4.84209V7.92161Z" fill="#14142B"/>
</g>
</svg>
