<svg width="24" height="24" viewBox="0 0 24 24" fill="none" xmlns="http://www.w3.org/2000/svg">
<mask id="mask0_6917_10915" style="mask-type:alpha" maskUnits="userSpaceOnUse" x="0" y="0" width="24" height="24">
<rect width="24" height="24" fill="#D9D9D9"/>
</mask>
<g mask="url(#mask0_6917_10915)">
<path d="M10.2105 15.3553H13.7895C13.9796 15.3553 14.139 15.2909 14.2676 15.1623C14.3962 15.0337 14.4605 14.8744 14.4605 14.6842V13.1184H13.1184V14.0132H10.8816V9.98682H13.1184V10.8816H14.4605V9.31549C14.4605 9.12527 14.3962 8.96593 14.2676 8.83746C14.139 8.70899 13.9796 8.64475 13.7895 8.64475H10.2105C10.0204 8.64475 9.86102 8.70905 9.73242 8.83766C9.6038 8.96628 9.53949 9.12565 9.53949 9.31578V14.6842C9.53949 14.8744 9.6038 15.0337 9.73242 15.1623C9.86102 15.2909 10.0204 15.3553 10.2105 15.3553ZM12.0015 20.5C10.8259 20.5 9.72084 20.2769 8.6864 19.8307C7.65195 19.3846 6.75212 18.779 5.98693 18.0142C5.22172 17.2493 4.61593 16.3499 4.16956 15.3159C3.72319 14.2819 3.5 13.1771 3.5 12.0015C3.5 10.8259 3.72309 9.72084 4.16927 8.6864C4.61544 7.65195 5.22096 6.75212 5.98581 5.98693C6.75068 5.22172 7.65011 4.61593 8.6841 4.16956C9.71807 3.72319 10.8229 3.5 11.9985 3.5C13.1741 3.5 14.2792 3.72309 15.3136 4.16927C16.3481 4.61544 17.2479 5.22096 18.0131 5.98581C18.7783 6.75068 19.3841 7.65011 19.8304 8.6841C20.2768 9.71807 20.5 10.8229 20.5 11.9985C20.5 13.1741 20.2769 14.2792 19.8307 15.3136C19.3846 16.3481 18.779 17.2479 18.0142 18.0131C17.2493 18.7783 16.3499 19.3841 15.3159 19.8304C14.2819 20.2768 13.1771 20.5 12.0015 20.5ZM12 19.1579C13.9983 19.1579 15.6908 18.4645 17.0776 17.0776C18.4645 15.6908 19.1579 13.9983 19.1579 12C19.1579 10.0017 18.4645 8.3092 17.0776 6.92236C15.6908 5.53551 13.9983 4.84209 12 4.84209C10.0017 4.84209 8.3092 5.53551 6.92235 6.92236C5.53551 8.3092 4.84209 10.0017 4.84209 12C4.84209 13.9983 5.53551 15.6908 6.92235 17.0776C8.3092 18.4645 10.0017 19.1579 12 19.1579Z" fill="#14142B"/>
</g>
</svg>
