<svg width="20" height="20" viewBox="0 0 20 20" fill="none" xmlns="http://www.w3.org/2000/svg">
<g clip-path="url(#clip0_236_12331)">
<path d="M16.875 5H13.75V3.75C13.75 3.0625 13.1875 2.5 12.5 2.5H11.25H8.75H7.5C6.8125 2.5 6.25 3.0625 6.25 3.75V5H3.125C2.75 5 2.5 5.25 2.5 5.625C2.5 6 2.75 6.25 3.125 6.25H3.8125L4.3125 16.3125C4.375 17 4.875 17.5 5.5625 17.5H14.5C15.1875 17.5 15.6875 17 15.75 16.3125L16.1875 6.25H16.875C17.25 6.25 17.5 6 17.5 5.625C17.5 5.25 17.25 5 16.875 5ZM7.5 3.75H12.5V5H7.5V3.75ZM14.4375 16.25H5.5625L5.0625 6.25H15L14.4375 16.25Z" fill="#14142B"/>
<path d="M8.75 12.5V9.375V8.75H7.5V9.375V12.5V13.125H8.75V12.5Z" fill="#14142B"/>
<path d="M12.5 12.5V9.375V8.75H11.25V9.375V12.5V13.125H12.5V12.5Z" fill="#14142B"/>
</g>
<defs>
<clipPath id="clip0_236_12331">
<rect width="15" height="15" fill="white" transform="translate(2.5 2.5)"/>
</clipPath>
</defs>
</svg>

