<svg width="49" height="49" viewBox="0 0 49 49" fill="none" xmlns="http://www.w3.org/2000/svg">
<g id="Line Darkmode/Upload">
<path id="Vector" d="M30.4642 9.45636L29.5986 9.95709C29.7773 10.2661 30.1072 10.4564 30.4642 10.4564V9.45636ZM4.55132 24.8162C4.72596 25.3402 5.29228 25.6233 5.81623 25.4487C6.34017 25.274 6.62333 24.7077 6.44868 24.1838L4.55132 24.8162ZM41.6056 24.0528C41.3586 24.5468 41.5588 25.1474 42.0528 25.3944C42.5468 25.6414 43.1474 25.4412 43.3944 24.9472L41.6056 24.0528ZM30.9734 30.5583C31.3719 30.9407 32.0049 30.9277 32.3873 30.5292C32.7697 30.1307 32.7566 29.4976 32.3581 29.1153L30.9734 30.5583ZM23.4991 22.0002L24.1915 21.2787C23.8046 20.9074 23.1936 20.9074 22.8067 21.2787L23.4991 22.0002ZM14.6401 29.1153C14.2416 29.4976 14.2285 30.1307 14.6109 30.5292C14.9933 30.9277 15.6263 30.9407 16.0248 30.5583L14.6401 29.1153ZM24.499 24.0614C24.499 23.5091 24.0513 23.0614 23.499 23.0614C22.9467 23.0614 22.499 23.5091 22.499 24.0614H24.499ZM22.499 46.0614C22.499 46.6137 22.9467 47.0614 23.499 47.0614C24.0513 47.0614 24.499 46.6137 24.499 46.0614H22.499ZM18.4127 3.5C23.191 3.5 27.3644 6.09486 29.5986 9.95709L31.3298 8.95564C28.7528 4.50082 23.9338 1.5 18.4127 1.5V3.5ZM5.5 16.4127C5.5 9.97491 11.3144 3.5 18.4127 3.5V1.5C10.1435 1.5 3.5 8.93782 3.5 16.4127H5.5ZM6.44868 24.1838C5.50632 21.3567 5.5 18.5092 5.5 16.4127H3.5C3.5 18.4908 3.49368 21.6433 4.55132 24.8162L6.44868 24.1838ZM42.5 18.5C42.5 20.5252 42.4854 22.2931 41.6056 24.0528L43.3944 24.9472C44.5146 22.7069 44.5 20.4748 44.5 18.5H42.5ZM32.3255 10.4564C34.9822 10.4564 37.5576 11.3916 39.4544 12.8882C41.3523 14.3858 42.5 16.3803 42.5 18.5H44.5C44.5 15.6197 42.9419 13.0924 40.6932 11.3181C38.4434 9.54296 35.4316 8.45636 32.3255 8.45636V10.4564ZM30.4642 10.4564H32.3255V8.45636H30.4642V10.4564ZM32.3581 29.1153L24.1915 21.2787L22.8067 22.7217L30.9734 30.5583L32.3581 29.1153ZM22.8067 21.2787L14.6401 29.1153L16.0248 30.5583L24.1915 22.7217L22.8067 21.2787ZM22.499 24.0614V46.0614H24.499V24.0614H22.499Z" fill="#4B9EF9"/>
</g>
</svg>
