<svg width="17" height="17" viewBox="0 0 17 17" fill="none" xmlns="http://www.w3.org/2000/svg">
<path d="M8.76426 16.2787C7.68545 16.2787 6.67142 16.074 5.72218 15.6646C4.77291 15.2551 3.94719 14.6995 3.24501 13.9976C2.54282 13.2957 1.98692 12.4704 1.57731 11.5215C1.1677 10.5727 0.962891 9.5589 0.962891 8.48009C0.962891 7.40127 1.16761 6.38724 1.57704 5.438C1.98647 4.48873 2.54212 3.66301 3.24399 2.96083C3.94586 2.25864 4.77122 1.70274 5.72006 1.29313C6.66889 0.883517 7.6827 0.678711 8.76151 0.678711C9.84033 0.678711 10.8544 0.883428 11.8036 1.29286C12.7529 1.70229 13.5786 2.25794 14.2808 2.95981C14.983 3.66169 15.5389 4.48704 15.9485 5.43588C16.3581 6.38471 16.5629 7.39852 16.5629 8.47734C16.5629 9.55615 16.3582 10.5702 15.9487 11.5194C15.5393 12.4687 14.9837 13.2944 14.2818 13.9966C13.5799 14.6988 12.7546 15.2547 11.8057 15.6643C10.8569 16.0739 9.84308 16.2787 8.76426 16.2787ZM8.76289 15.0471C10.5966 15.0471 12.1497 14.4108 13.4224 13.1382C14.695 11.8656 15.3313 10.3124 15.3313 8.47871C15.3313 8.38292 15.3292 8.28502 15.325 8.18502C15.3208 8.08503 15.3161 7.99555 15.3108 7.9166C15.2582 8.29765 15.0932 8.61291 14.8158 8.86239C14.5384 9.11187 14.205 9.23661 13.8155 9.23661H11.9524C11.5355 9.23661 11.1787 9.08829 10.8818 8.79166C10.585 8.49504 10.4366 8.13845 10.4366 7.7219V6.96456H7.40501V5.44986C7.40501 5.03331 7.55343 4.67609 7.85027 4.3782C8.14712 4.08031 8.50396 3.93136 8.9208 3.93136H9.6787V3.61554C9.6787 3.2587 9.78659 2.96317 10.0024 2.72897C10.2182 2.49475 10.4782 2.33132 10.7824 2.23869C10.4613 2.13344 10.134 2.05238 9.80037 1.99554C9.46675 1.9387 9.12092 1.91027 8.76289 1.91027C6.9292 1.91027 5.37604 2.54659 4.1034 3.81923C2.83077 5.09186 2.19445 6.64502 2.19445 8.47871V8.59715C2.19445 8.63399 2.19709 8.67346 2.20235 8.71556H6.09444C6.93445 8.71556 7.64971 9.01083 8.24023 9.60136C8.83076 10.1919 9.12602 10.9059 9.12602 11.7436V12.505H6.85234V14.755C7.15761 14.8498 7.46866 14.9221 7.78551 14.9721C8.10235 15.0221 8.42815 15.0471 8.76289 15.0471Z" fill="#14142B"/>
</svg>
