<svg width="24" height="24" viewBox="0 0 24 24" fill="none" xmlns="http://www.w3.org/2000/svg">
<g id="Line Lightmode/General/Hashtag">
<path id="Vector" fill-rule="evenodd" clip-rule="evenodd" d="M12.316 4.05755C12.7814 4.23208 13.0172 4.75085 12.8427 5.21626L11.6112 8.50024H15.0888L16.5573 4.58423C16.7318 4.11882 17.2506 3.88302 17.716 4.05755C18.1814 4.23208 18.4172 4.75085 18.2427 5.21626L17.0112 8.50024H20.1C20.5971 8.50024 21 8.90319 21 9.40024C21 9.8973 20.5971 10.3002 20.1 10.3002H16.3362L14.9862 13.9002H18.3C18.7971 13.9002 19.2 14.3032 19.2 14.8002C19.2 15.2973 18.7971 15.7002 18.3 15.7002H14.3112L12.8427 19.6163C12.6682 20.0817 12.1494 20.3175 11.684 20.1429C11.2186 19.9684 10.9828 19.4496 11.1573 18.9842L12.3888 15.7002H8.9112L7.4427 19.6163C7.26817 20.0817 6.7494 20.3175 6.28399 20.1429C5.81858 19.9684 5.58278 19.4496 5.7573 18.9842L6.9888 15.7002H3.9C3.40294 15.7002 3 15.2973 3 14.8002C3 14.3032 3.40294 13.9002 3.9 13.9002H7.6638L9.0138 10.3002H5.7C5.20294 10.3002 4.8 9.8973 4.8 9.40024C4.8 8.90319 5.20294 8.50024 5.7 8.50024H9.6888L11.1573 4.58423C11.3318 4.11882 11.8506 3.88302 12.316 4.05755ZM10.9362 10.3002L9.5862 13.9002H13.0638L14.4138 10.3002H10.9362Z" fill="#14142B"/>
</g>
</svg>
