<svg width="20" height="20" viewBox="0 0 20 20" fill="none" xmlns="http://www.w3.org/2000/svg">
<path d="M5.47805 15.6177C5.24386 15.8714 5.25977 16.267 5.51344 16.5008C5.63391 16.6118 5.7858 16.6666 5.93728 16.6666C6.10587 16.6666 6.27326 16.599 6.39652 16.4658L5.47805 15.6177ZM17.2706 10.2453L16.479 11.213C16.7461 11.4313 17.1402 11.392 17.3585 11.1248C17.4535 11.0087 17.5 10.8687 17.5 10.7295C17.5 10.5486 17.4217 10.3689 17.2706 10.2453ZM4.68722 11.0417C4.68722 11.3868 4.96713 11.6667 5.31225 11.6667C5.65737 11.6667 5.90905 11.4142 5.9349 11.093C5.93649 11.0763 5.93728 11.0596 5.93728 11.0425V11.0417H4.68722V11.0417ZM9.68748 11.0417V11.0425C9.68748 11.0472 9.68748 11.052 9.68788 11.0568C9.69583 11.3947 9.97217 11.6667 10.3125 11.6667C10.6529 11.6667 10.9375 11.3868 10.9375 11.0417H9.68748V11.0417ZM4.3747 4.16663V5.41671H15.6249V4.16663H4.3747ZM16.2499 6.04175V9.41028L14.7446 8.17849C13.9768 7.55027 12.8524 7.629 12.1793 8.35781L10.5944 10.0747C10.437 9.83771 10.2302 9.60511 9.98847 9.39676C9.45489 8.93593 8.69029 8.54151 7.81238 8.54151C6.93447 8.54151 6.16988 8.93593 5.6363 9.39676C5.37149 9.62539 5.14804 9.88304 4.98542 10.1435L3.74967 8.9077V10.6755L7.02075 13.9466L5.66334 15.4169H7.36468L13.0977 9.20591C13.3224 8.96297 13.6969 8.93673 13.953 9.14587L16.2499 11.0258V14.7919H17.5V6.04175H16.2499ZM7.86924 13.0273L5.9349 11.093C5.93649 11.0763 5.93728 11.0596 5.93728 11.0425C5.93808 11.0425 5.94722 10.9641 6.04066 10.813C6.13012 10.6679 6.26968 10.5009 6.45298 10.3427C6.82434 10.0222 7.30981 9.79159 7.81238 9.79159C8.31496 9.79159 8.80043 10.0222 9.17179 10.3427C9.35469 10.5009 9.49425 10.6679 9.58411 10.813C9.67715 10.9641 9.68669 11.0425 9.68748 11.0425C9.68748 11.0472 9.68748 11.052 9.68788 11.0568L7.86924 13.0273V13.0273ZM4.3747 15.4169V16.6666H15.6249V15.4169H4.3747V15.4169ZM2.5 6.04175V14.7919H3.74967V6.04175H2.5ZM3.74967 15.4169V14.7919H2.5C2.5 15.8273 3.33934 16.6666 4.3747 16.6666V15.4169H3.74967V15.4169ZM16.2499 14.7919V15.4169H15.6249V16.6666C16.6603 16.6666 17.5 15.8273 17.5 14.7919H16.2499V14.7919ZM17.5 6.04175C17.5 5.00598 16.6603 4.16663 15.6249 4.16663V5.41671H16.2499V6.04175H17.5V6.04175ZM2.5 6.04175H3.74967V5.41671H4.3747V4.16663C3.33934 4.16663 2.5 5.00598 2.5 6.04175ZM5.88361 11.0417L5.9349 11.093C5.93649 11.0763 5.93728 11.0596 5.93728 11.0425V11.0417H5.88361V11.0417ZM12.1793 8.35781L10.5944 10.0747L9.7018 11.0417H9.68748V11.0425C9.68748 11.0472 9.68748 11.052 9.68788 11.0568L7.86924 13.0273L7.02075 13.9466L5.66334 15.4169L5.47805 15.6177L6.39652 16.4658L7.36468 15.4169L13.0977 9.20591L12.1793 8.35781V8.35781ZM16.2499 9.41028L14.7446 8.17849L13.953 9.14587L16.2499 11.0258L16.479 11.213L17.2706 10.2453L16.2499 9.41028V9.41028ZM12.1793 8.35781L13.0977 9.20591C13.3224 8.96297 13.6969 8.93673 13.953 9.14587L14.7446 8.17849C13.9768 7.55027 12.8524 7.629 12.1793 8.35781V8.35781ZM7.86924 13.0273L5.9349 11.093L5.88361 11.0417L4.98542 10.1435L3.56677 8.7248L2.6829 9.60869L7.52651 14.4523L8.41038 13.5685L7.86924 13.0273V13.0273ZM5.6363 9.39676C5.37149 9.62539 5.14804 9.88304 4.98542 10.1435C4.98224 10.1478 4.97946 10.1526 4.97667 10.157C4.82201 10.4079 4.68722 10.7204 4.68722 11.0417H5.88361L5.9349 11.093C5.93649 11.0763 5.93728 11.0596 5.93728 11.0425C5.93808 11.0425 5.94722 10.9641 6.04066 10.813C6.13012 10.6679 6.26968 10.5009 6.45298 10.3427C6.82434 10.0222 7.30981 9.79159 7.81238 9.79159V8.54151C6.93408 8.54151 6.16988 8.93593 5.6363 9.39676V9.39676ZM10.6477 10.157C10.6306 10.1296 10.6131 10.1021 10.5944 10.0747C10.437 9.83771 10.2302 9.60511 9.98847 9.39676C9.45489 8.93593 8.69029 8.54151 7.81238 8.54151V9.79159C8.31496 9.79159 8.80043 10.0222 9.17179 10.3427C9.35469 10.5009 9.49425 10.6679 9.58411 10.813C9.67715 10.9641 9.68669 11.0425 9.68748 11.0425V11.0417H10.9375C10.9375 10.7204 10.8028 10.4079 10.6477 10.157Z" fill="white"/>
</svg>
