<svg width="15" height="12" viewBox="0 0 15 12" fill="none" xmlns="http://www.w3.org/2000/svg">
<path d="M3.43025 10.306C3.21948 10.5343 3.23379 10.8904 3.4621 11.1008C3.57052 11.2006 3.70722 11.25 3.84356 11.25C3.99528 11.25 4.14593 11.1892 4.25687 11.0693L3.43025 10.306ZM14.0435 5.47077L13.3311 6.34177C13.5715 6.53823 13.9262 6.5028 14.1226 6.26233C14.2081 6.15783 14.25 6.03187 14.25 5.90663C14.25 5.7438 14.1795 5.58206 14.0435 5.47077ZM2.7185 6.18754C2.7185 6.49815 2.97042 6.75007 3.28103 6.75007C3.59163 6.75007 3.81815 6.52284 3.84141 6.2337C3.84284 6.21867 3.84356 6.20364 3.84356 6.18825V6.18754H2.7185ZM7.21873 6.18754V6.18825C7.21873 6.19254 7.21873 6.19684 7.21909 6.20113C7.22625 6.5053 7.47495 6.75007 7.78126 6.75007C8.08758 6.75007 8.34379 6.49815 8.34379 6.18754H7.21873ZM2.43723 0V1.12507H12.5624V0H2.43723ZM13.1249 1.68761V4.71929L11.7701 3.61068C11.0791 3.04528 10.0672 3.11613 9.46134 3.77207L8.03498 5.31725C7.89327 5.10397 7.70719 4.89463 7.48962 4.70712C7.0094 4.29238 6.32126 3.93739 5.53115 3.93739C4.74103 3.93739 4.05289 4.29238 3.57267 4.70712C3.33434 4.91288 3.13324 5.14477 2.98688 5.37916L1.8747 4.26697V5.85796L4.81868 8.80197L3.597 10.1253H5.12821L10.288 4.53536C10.4901 4.31671 10.8272 4.29309 11.0577 4.48132L13.1249 6.17322V9.56275H14.25V1.68761H13.1249ZM5.58232 7.97462L3.84141 6.2337C3.84284 6.21867 3.84356 6.20364 3.84356 6.18825C3.84427 6.18825 3.8525 6.11776 3.9366 5.98177C4.01711 5.85116 4.14271 5.70086 4.30768 5.55844C4.6419 5.27002 5.07883 5.06246 5.53115 5.06246C5.98346 5.06246 6.42039 5.27002 6.75461 5.55844C6.91922 5.70086 7.04482 5.85116 7.1257 5.98177C7.20943 6.11776 7.21802 6.18825 7.21873 6.18825C7.21873 6.19254 7.21873 6.19684 7.21909 6.20113L5.58232 7.97462ZM2.43723 10.1253V11.25H12.5624V10.1253H2.43723ZM0.75 1.68761V9.56275H1.8747V1.68761H0.75ZM1.8747 10.1253V9.56275H0.75C0.75 10.4946 1.50541 11.25 2.43723 11.25V10.1253H1.8747ZM13.1249 9.56275V10.1253H12.5624V11.25C13.4942 11.25 14.25 10.4946 14.25 9.56275H13.1249ZM14.25 1.68761C14.25 0.755415 13.4942 0 12.5624 0V1.12507H13.1249V1.68761H14.25ZM0.75 1.68761H1.8747V1.12507H2.43723V0C1.50541 0 0.75 0.755415 0.75 1.68761ZM3.79525 6.18754L3.84141 6.2337C3.84284 6.21867 3.84356 6.20364 3.84356 6.18825V6.18754H3.79525ZM9.46134 3.77207L8.03498 5.31725L7.23162 6.18754H7.21873V6.18825C7.21873 6.19254 7.21873 6.19684 7.21909 6.20113L5.58232 7.97462L4.81868 8.80197L3.597 10.1253L3.43025 10.306L4.25687 11.0693L5.12821 10.1253L10.288 4.53536L9.46134 3.77207ZM13.1249 4.71929L11.7701 3.61068L11.0577 4.48132L13.1249 6.17322L13.3311 6.34177L14.0435 5.47077L13.1249 4.71929ZM9.46134 3.77207L10.288 4.53536C10.4901 4.31671 10.8272 4.29309 11.0577 4.48132L11.7701 3.61068C11.0791 3.04528 10.0672 3.11613 9.46134 3.77207ZM5.58232 7.97462L3.84141 6.2337L3.79525 6.18754L2.98688 5.37916L1.71009 4.10236L0.914608 4.89785L5.27386 9.25715L6.06934 8.46165L5.58232 7.97462ZM3.57267 4.70712C3.33434 4.91288 3.13324 5.14477 2.98688 5.37916C2.98402 5.3831 2.98151 5.38739 2.97901 5.39133C2.83981 5.61713 2.7185 5.8984 2.7185 6.18754H3.79525L3.84141 6.2337C3.84284 6.21867 3.84356 6.20364 3.84356 6.18825C3.84427 6.18825 3.8525 6.11776 3.9366 5.98177C4.01711 5.85116 4.14271 5.70086 4.30768 5.55844C4.6419 5.27002 5.07883 5.06246 5.53115 5.06246V3.93739C4.74067 3.93739 4.05289 4.29238 3.57267 4.70712ZM8.08293 5.39133C8.06754 5.36663 8.05179 5.34194 8.03498 5.31725C7.89327 5.10397 7.70719 4.89463 7.48962 4.70712C7.0094 4.29238 6.32126 3.93739 5.53115 3.93739V5.06246C5.98346 5.06246 6.42039 5.27002 6.75461 5.55844C6.91922 5.70086 7.04482 5.85116 7.1257 5.98177C7.20943 6.11776 7.21802 6.18825 7.21873 6.18825V6.18754H8.34379C8.34379 5.8984 8.22249 5.61713 8.08293 5.39133Z" fill="white"/>
</svg>
