<svg width="25" height="24" viewBox="0 0 25 24" fill="none" xmlns="http://www.w3.org/2000/svg">
<mask id="mask0_6917_10884" style="mask-type:alpha" maskUnits="userSpaceOnUse" x="0" y="0" width="25" height="24">
<rect x="0.72168" width="24" height="24" fill="#D9D9D9"/>
</mask>
<g mask="url(#mask0_6917_10884)">
<path d="M12.6142 19.6527L16.276 10.1977H17.5599L21.2217 19.6527H19.9141L18.9829 17.1451H14.853L13.9217 19.6527H12.6142ZM6.12689 17.2336L5.26046 16.3672L9.3492 12.2705C8.87486 11.7909 8.42398 11.2217 7.99656 10.5629C7.56912 9.90414 7.21733 9.23428 6.94117 8.55336H8.24872C8.48588 9.05087 8.77443 9.5484 9.11437 10.0459C9.45431 10.5435 9.82139 10.9962 10.2156 11.4041C10.7996 10.8149 11.3519 10.0994 11.8726 9.25774C12.3934 8.41606 12.7612 7.63315 12.9763 6.909H4.22168V5.67576H9.61325V4.34766H10.8465V5.67576H16.238V6.909H14.2253C13.9586 7.83236 13.5336 8.79762 12.9502 9.80479C12.3667 10.812 11.744 11.6423 11.082 12.2958L13.1106 14.3734L12.6442 15.6399L10.2156 13.1496L6.12689 17.2336ZM15.2483 16.0541H18.5876L16.9179 11.5685L15.2483 16.0541Z" fill="#14142B"/>
</g>
</svg>
