<svg width="24" height="24" viewBox="0 0 24 24" fill="none" xmlns="http://www.w3.org/2000/svg">
<mask id="mask0_6917_10927" style="mask-type:alpha" maskUnits="userSpaceOnUse" x="0" y="0" width="24" height="24">
<rect width="24" height="24" fill="#D9D9D9"/>
</mask>
<g mask="url(#mask0_6917_10927)">
<path d="M8.42104 11.2081C8.64013 11.2081 8.82682 11.1309 8.9811 10.9766C9.13539 10.8224 9.21253 10.6357 9.21253 10.4166C9.21253 10.1975 9.13539 10.0108 8.9811 9.85651C8.82682 9.70223 8.64013 9.62509 8.42104 9.62509C8.20195 9.62509 8.01526 9.70223 7.86098 9.85651C7.7067 10.0108 7.62956 10.1975 7.62956 10.4166C7.62956 10.6357 7.7067 10.8224 7.86098 10.9766C8.01526 11.1309 8.20195 11.2081 8.42104 11.2081ZM12 11.2081C12.2191 11.2081 12.4058 11.1309 12.5601 10.9766C12.7143 10.8224 12.7915 10.6357 12.7915 10.4166C12.7915 10.1975 12.7143 10.0108 12.5601 9.85651C12.4058 9.70223 12.2191 9.62509 12 9.62509C11.7809 9.62509 11.5942 9.70223 11.4399 9.85651C11.2857 10.0108 11.2085 10.1975 11.2085 10.4166C11.2085 10.6357 11.2857 10.8224 11.4399 10.9766C11.5942 11.1309 11.7809 11.2081 12 11.2081ZM15.579 11.2081C15.798 11.2081 15.9847 11.1309 16.139 10.9766C16.2933 10.8224 16.3704 10.6357 16.3704 10.4166C16.3704 10.1975 16.2933 10.0108 16.139 9.85651C15.9847 9.70223 15.798 9.62509 15.579 9.62509C15.3599 9.62509 15.1732 9.70223 15.0189 9.85651C14.8646 10.0108 14.7875 10.1975 14.7875 10.4166C14.7875 10.6357 14.8646 10.8224 15.0189 10.9766C15.1732 11.1309 15.3599 11.2081 15.579 11.2081ZM3.5 20.2931V5.32348C3.5 4.87151 3.65658 4.48895 3.96974 4.17579C4.2829 3.86263 4.66546 3.70605 5.11742 3.70605H18.8826C19.3345 3.70605 19.7171 3.86263 20.0303 4.17579C20.3434 4.48895 20.5 4.87151 20.5 5.32348V15.5097C20.5 15.9616 20.3434 16.3442 20.0303 16.6574C19.7171 16.9705 19.3345 17.1271 18.8826 17.1271H6.66599L3.5 20.2931ZM6.09474 15.785H18.8826C18.9514 15.785 19.0145 15.7563 19.0719 15.699C19.1292 15.6416 19.1579 15.5785 19.1579 15.5097V5.32348C19.1579 5.25464 19.1292 5.19154 19.0719 5.13417C19.0145 5.07682 18.9514 5.04814 18.8826 5.04814H5.11742C5.04858 5.04814 4.98548 5.07682 4.92812 5.13417C4.87076 5.19154 4.84209 5.25464 4.84209 5.32348V17.0239L6.09474 15.785Z" fill="#14142B"/>
</g>
</svg>
