<svg width="67" height="55" viewBox="0 0 67 55" fill="none" xmlns="http://www.w3.org/2000/svg">
<path d="M40.1667 39.8333C40.1667 40.3855 40.6144 40.8333 41.1667 40.8333H45.8333C46.3856 40.8333 46.8333 40.3855 46.8333 39.8333V35.1666C46.8333 34.6143 47.2811 34.1666 47.8333 34.1666H52.5C53.0523 34.1666 53.5 33.7189 53.5 33.1666V28.4999C53.5 27.9476 53.0523 27.4999 52.5 27.4999H47.8333C47.2811 27.4999 46.8333 27.0522 46.8333 26.4999V21.8333C46.8333 21.281 46.3856 20.8333 45.8333 20.8333H41.1667C40.6144 20.8333 40.1667 21.281 40.1667 21.8333V26.4999C40.1667 27.0522 39.719 27.4999 39.1667 27.4999H34.5C33.9477 27.4999 33.5 27.9476 33.5 28.4999V33.1666C33.5 33.7189 33.9477 34.1666 34.5 34.1666H39.1667C39.719 34.1666 40.1667 34.6143 40.1667 35.1666V39.8333ZM6.83334 54.1666C5 54.1666 3.43056 53.5138 2.12501 52.2083C0.81945 50.9027 0.166672 49.3332 0.166672 47.4999V7.49992C0.166672 5.66658 0.81945 4.09714 2.12501 2.79159C3.43056 1.48603 5 0.833252 6.83334 0.833252H26.8333L33.5 7.49992H60.1667C62 7.49992 63.5695 8.1527 64.875 9.45825C66.1806 10.7638 66.8333 12.3333 66.8333 14.1666V47.4999C66.8333 49.3332 66.1806 50.9027 64.875 52.2083C63.5695 53.5138 62 54.1666 60.1667 54.1666H6.83334Z" fill="#4B9EF9"/>
</svg>