<svg width="24" height="24" viewBox="0 0 24 24" fill="none" xmlns="http://www.w3.org/2000/svg">
<mask id="mask0_6917_10921" style="mask-type:alpha" maskUnits="userSpaceOnUse" x="0" y="0" width="24" height="24">
<rect width="24" height="24" fill="#D9D9D9"/>
</mask>
<g mask="url(#mask0_6917_10921)">
<path d="M5.50454 20.25C5.01426 20.25 4.59927 20.0801 4.25956 19.7404C3.91985 19.4007 3.75 18.9857 3.75 18.4955V5.50454C3.75 5.01426 3.91985 4.59927 4.25956 4.25956C4.59927 3.91985 5.01426 3.75 5.50454 3.75H15.677L20.25 8.32296V18.4955C20.25 18.9857 20.0801 19.4007 19.7404 19.7404C19.4007 20.0801 18.9857 20.25 18.4955 20.25H5.50454ZM5.50454 18.7941H18.4955C18.5826 18.7941 18.6541 18.7661 18.7101 18.7101C18.7661 18.6541 18.7941 18.5826 18.7941 18.4955V9.08823H14.9118V5.20586H5.50454C5.41743 5.20586 5.34587 5.23386 5.28987 5.28987C5.23386 5.34587 5.20586 5.41743 5.20586 5.50454V18.4955C5.20586 18.5826 5.23386 18.6541 5.28987 18.7101C5.34587 18.7661 5.41743 18.7941 5.50454 18.7941ZM7.38972 16.3676H16.6103V14.9118H7.38972V16.3676ZM7.38972 9.08823H12V7.63236H7.38972V9.08823ZM7.38972 12.7279H16.6103V11.2721H7.38972V12.7279Z" fill="#14142B"/>
</g>
</svg>
