<svg width="201" height="200" viewBox="0 0 201 200" fill="none" xmlns="http://www.w3.org/2000/svg">
<ellipse cx="37.1666" cy="69.3333" rx="3.33333" ry="3.33333" fill="#8CC8FA"/>
<ellipse cx="30.1666" cy="129" rx="6.33333" ry="6.33333" fill="#8CC8FA"/>
<ellipse cx="165.167" cy="64.3333" rx="4" ry="4.33333" fill="#8CC8FA"/>
<g clip-path="url(#clip0_624_15955)">
<path d="M145.072 64.7524H56.1439C54.9441 64.7532 53.7937 65.2273 52.9454 66.0707C52.0971 66.9141 51.6201 68.0577 51.6194 69.2505V150.366C51.6201 151.558 52.0971 152.702 52.9454 153.545C53.7937 154.389 54.9441 154.863 56.1439 154.864H145.072C146.272 154.863 147.422 154.389 148.271 153.545C149.119 152.702 149.596 151.558 149.597 150.366V69.2505C149.596 68.0577 149.119 66.9139 148.271 66.0705C147.422 65.2271 146.272 64.7531 145.072 64.7524Z" fill="#B4DBFC"/>
<path d="M139.218 126.676H61.9991C59.5004 126.676 57.4746 124.662 57.4746 122.178V50.5088C57.4746 48.0247 59.5004 46.0107 61.9991 46.0107H139.218C141.716 46.0107 143.742 48.0247 143.742 50.5088V122.178C143.742 124.662 141.716 126.676 139.218 126.676Z" fill="#F7F7FC"/>
<path d="M58.9071 123.602V51.9329C58.9071 49.4488 60.9329 47.4348 63.4316 47.4348H140.65C141.533 47.4348 142.353 47.6898 143.049 48.1241C142.249 46.8561 140.834 46.0107 139.218 46.0107H61.9991C59.5004 46.0107 57.4746 48.0247 57.4746 50.5088V122.178C57.4746 123.786 58.3249 125.192 59.6004 125.987C59.1636 125.295 58.9071 124.48 58.9071 123.602V123.602Z" fill="#D7ECFD"/>
<path d="M129.717 61.1538H71.5007V64.4521H129.717V61.1538ZM129.717 73.7477H71.5007V77.046H129.717V73.7477ZM129.717 86.3445H71.5007V89.6427H129.717V86.3445ZM129.717 98.9384H71.5007V102.237H129.717V98.9384Z" fill="white"/>
<path d="M78.438 88.2925L93.0669 102.836H78.438V88.2925Z" fill="url(#paint0_linear_624_15955)"/>
<path d="M149.597 104.036V70.5733L143.742 64.7524V104.035H149.597V104.036Z" fill="#B4DBFC"/>
<path d="M156.455 107.062L150.147 151.454C149.831 153.673 147.921 155.322 145.667 155.322H55.5497C53.2954 155.322 51.3849 153.673 51.0696 151.454L42.5453 91.4702C42.1608 88.7623 44.2744 86.3428 47.0254 86.3428H74.8554C77.1097 86.3428 79.0201 87.9921 79.3355 90.211L80.4526 98.0663C80.768 100.286 82.6784 101.935 84.9327 101.935H151.975C154.725 101.935 156.84 104.354 156.455 107.062H156.455Z" fill="url(#paint1_linear_624_15955)"/>
<path d="M134.105 135.522H67.112C66.7448 135.522 66.3903 135.389 66.1148 135.148C65.8393 134.906 65.6618 134.573 65.6155 134.211L64.7774 127.614C64.7507 127.403 64.7695 127.188 64.8326 126.985C64.8956 126.782 65.0014 126.594 65.1429 126.435C65.2844 126.275 65.4584 126.147 65.6534 126.06C65.8484 125.972 66.0599 125.927 66.2738 125.927H134.943C135.157 125.927 135.369 125.972 135.564 126.06C135.759 126.147 135.933 126.275 136.074 126.435C136.216 126.594 136.322 126.782 136.385 126.985C136.448 127.188 136.467 127.403 136.44 127.614L135.602 134.211C135.555 134.573 135.378 134.906 135.102 135.148C134.827 135.389 134.472 135.522 134.105 135.522Z" fill="#8CC8FA"/>
</g>
<ellipse cx="167.833" cy="48.0002" rx="2.66666" ry="2.66667" fill="#8CC8FA"/>
<defs>
<linearGradient id="paint0_linear_624_15955" x1="88.1032" y1="105.17" x2="70.5243" y2="87.488" gradientUnits="userSpaceOnUse">
<stop stop-color="#C2C9CE" stop-opacity="0"/>
<stop offset="0.179" stop-color="#AFB3BC" stop-opacity="0.179"/>
<stop offset="1" stop-color="#808BA0"/>
</linearGradient>
<linearGradient id="paint1_linear_624_15955" x1="99.5" y1="86.3428" x2="99.5" y2="155.322" gradientUnits="userSpaceOnUse">
<stop stop-color="#8CC8FA"/>
<stop offset="0.927" stop-color="#4B9EF9"/>
</linearGradient>
<clipPath id="clip0_624_15955">
<rect width="114" height="113.333" fill="white" transform="translate(42.5 44)"/>
</clipPath>
</defs>
</svg>
