<svg width="25" height="24" viewBox="0 0 25 24" fill="none" xmlns="http://www.w3.org/2000/svg">
<path fill-rule="evenodd" clip-rule="evenodd" d="M11.8169 5.11905C8.24022 5.11905 5.34073 8.01854 5.34073 11.5952C5.34073 15.1719 8.24022 18.0714 11.8169 18.0714C15.3936 18.0714 18.2931 15.1719 18.2931 11.5952C18.2931 8.01854 15.3936 5.11905 11.8169 5.11905ZM3.72168 11.5952C3.72168 7.12436 7.34604 3.5 11.8169 3.5C16.2878 3.5 19.9122 7.12436 19.9122 11.5952C19.9122 13.5391 19.227 15.323 18.085 16.7185L20.4846 19.1181C20.8007 19.4342 20.8007 19.9468 20.4846 20.2629C20.1684 20.579 19.6559 20.579 19.3397 20.2629L16.9402 17.8633C15.5447 19.0053 13.7608 19.6905 11.8169 19.6905C7.34604 19.6905 3.72168 16.0661 3.72168 11.5952Z" fill="#14142B"/>
</svg>
