<svg width="25" height="24" viewBox="0 0 25 24" fill="none" xmlns="http://www.w3.org/2000/svg">
<mask id="mask0_6917_10891" style="mask-type:alpha" maskUnits="userSpaceOnUse" x="0" y="0" width="25" height="24">
<rect x="0.22168" width="24" height="24" fill="#D9D9D9"/>
</mask>
<g mask="url(#mask0_6917_10891)">
<path d="M5.68738 20.25C5.21555 20.25 4.81165 20.082 4.47566 19.746C4.13967 19.41 3.97168 19.0061 3.97168 18.5343V5.83078C3.97168 5.35895 4.13967 4.95505 4.47566 4.61906C4.81165 4.28306 5.21555 4.11505 5.68738 4.11505H13.9374V5.53871H5.68738C5.60219 5.53871 5.53222 5.56609 5.47746 5.62085C5.42269 5.67562 5.39531 5.74559 5.39531 5.83078V18.5343C5.39531 18.6195 5.42269 18.6895 5.47746 18.7442C5.53222 18.799 5.60219 18.8264 5.68738 18.8264H18.3909C18.4761 18.8264 18.5461 18.799 18.6008 18.7442C18.6556 18.6895 18.683 18.6195 18.683 18.5343V10.2843H20.1066V18.5343C20.1066 19.0061 19.9386 19.41 19.6026 19.746C19.2666 20.082 18.8627 20.25 18.3909 20.25H5.68738ZM17.1498 8.97011V7.07187H15.2516V5.64824H17.1498V3.75H18.5734V5.64824H20.4717V7.07187H18.5734V8.97011H17.1498ZM7.05632 16.6908H17.095L13.9739 12.5293L11.3091 15.9973L9.41084 13.5697L7.05632 16.6908Z" fill="#14142B"/>
</g>
</svg>
