<svg width="148" height="129" viewBox="0 0 148 129" fill="none" xmlns="http://www.w3.org/2000/svg">
<path d="M69.8887 128.5C101.151 128.5 126.494 103.157 126.494 71.8951C126.494 40.633 101.151 15.2901 69.8887 15.2901C38.6266 15.2901 13.2837 40.633 13.2837 71.8951C13.2837 103.157 38.6266 128.5 69.8887 128.5Z" fill="#F3FAFF"/>
<path fill-rule="evenodd" clip-rule="evenodd" d="M108.608 23.6843C108.969 22.9209 109.332 22.1307 109.698 21.3138L110.295 21.581C109.927 22.402 109.562 23.1962 109.199 23.9637L108.608 23.6843ZM106.258 28.3414C106.657 27.6059 107.059 26.8356 107.464 26.0304L108.048 26.3244C107.64 27.1354 107.235 27.9117 106.833 28.6531L106.258 28.3414ZM104.976 30.6072C104.511 31.3908 104.051 32.125 103.596 32.8101L104.141 33.1722C104.602 32.4776 105.068 31.7339 105.539 30.941L104.976 30.6072ZM100.405 36.8853C100.956 36.3131 101.516 35.66 102.084 34.9262L102.601 35.3266C102.019 36.0785 101.444 36.7494 100.875 37.3393L100.405 36.8853ZM98.4833 38.5751C97.7188 39.123 96.9742 39.502 96.2501 39.7138L96.4337 40.3416C97.2326 40.1079 98.0427 39.6956 98.8644 39.1068L98.4833 38.5751ZM91.6377 38.6443C92.357 39.2244 93.0883 39.6042 93.8325 39.7875L93.6761 40.4226C92.8345 40.2154 92.0179 39.7912 91.2271 39.1535L91.6377 38.6443ZM89.8745 36.7867C89.8339 36.7336 89.7934 36.6799 89.753 36.6255C89.2265 35.9168 88.844 35.2441 88.6001 34.6088L87.9895 34.8432C88.2559 35.5373 88.6676 36.2613 89.228 37.0156C89.2701 37.0723 89.3124 37.1284 89.3547 37.1838L89.8745 36.7867ZM89.7175 30.2063C89.011 30.7899 88.5565 31.4598 88.3712 32.2071L87.7363 32.0496C87.9575 31.1579 88.4917 30.3704 89.301 29.702L89.7175 30.2063ZM91.9029 28.9775C92.6389 28.6901 93.4665 28.4557 94.3639 28.2788L94.2374 27.6371C93.3034 27.8212 92.4387 28.0661 91.665 28.3683L91.9029 28.9775ZM99.4851 27.9046C98.6148 27.8737 97.7476 27.888 96.9031 27.9475L96.8572 27.295C97.7249 27.2339 98.6152 27.2191 99.5084 27.2509L99.4851 27.9046ZM102.089 28.1338C102.965 28.2587 103.814 28.4297 104.615 28.644L104.784 28.0121C103.957 27.7909 103.083 27.6147 102.181 27.4863L102.089 28.1338ZM109.216 30.7997C108.618 30.3129 107.888 29.876 107.046 29.4963L107.314 28.9C108.206 29.3019 108.984 29.7677 109.629 30.2923L109.216 30.7997ZM110.774 32.7644C110.932 33.131 111.033 33.513 111.076 33.9102C111.121 34.3305 111.136 34.7529 111.122 35.1776L111.776 35.1989C111.791 34.7439 111.774 34.2911 111.726 33.8406C111.676 33.3778 111.559 32.9322 111.375 32.5058L110.774 32.7644ZM109.727 40.0513C110.148 39.2572 110.474 38.4715 110.705 37.6941L111.332 37.8805C111.088 38.7005 110.746 39.5262 110.305 40.3577L109.727 40.0513ZM108.342 42.2381C107.858 42.8971 107.311 43.5614 106.701 44.2309L107.184 44.6715C107.809 43.9854 108.371 43.3033 108.869 42.6252L108.342 42.2381ZM102.944 47.7704C103.638 47.1956 104.289 46.6242 104.895 46.0564L105.342 46.5336C104.726 47.1109 104.066 47.6911 103.361 48.2742L102.944 47.7704ZM100.883 49.3896C100.211 49.8927 99.5051 50.3983 98.7667 50.9064L99.1375 51.4452C99.8829 50.9323 100.595 50.4217 101.275 49.9133L100.883 49.3896ZM95.2115 53.2151C95.6762 52.9291 96.1308 52.6438 96.5752 52.3593L96.9279 52.9102C96.4802 53.1968 96.0224 53.4841 95.5544 53.7722L95.2115 53.2151Z" fill="#4B9EF9"/>
<path fill-rule="evenodd" clip-rule="evenodd" d="M119.459 5.14318C118.664 5.38628 102.199 15.2372 102.199 15.2372L107.004 15.5955L110.418 19.3689C110.418 19.3689 120.254 4.90007 119.459 5.14318Z" fill="#8CC8FA"/>
<mask id="mask0_6783_18663" style="mask-type:luminance" maskUnits="userSpaceOnUse" x="102" y="5" width="18" height="15">
<path fill-rule="evenodd" clip-rule="evenodd" d="M119.459 5.14318C118.664 5.38628 102.199 15.2372 102.199 15.2372L107.004 15.5955L110.418 19.3689C110.418 19.3689 120.254 4.90007 119.459 5.14318Z" fill="white"/>
</mask>
<g mask="url(#mask0_6783_18663)">
<path fill-rule="evenodd" clip-rule="evenodd" d="M107.004 15.5952L119.459 5.14285L110.419 19.3686L107.004 15.5952Z" fill="#4B9EF9"/>
</g>
<path fill-rule="evenodd" clip-rule="evenodd" d="M116.986 16.5579L111.213 15.9544L119.465 5.24462L116.986 16.5579Z" fill="#8CC8FA"/>
<path d="M103.851 128.5H35.9253V55.2909C39.1269 55.2873 42.1963 54.0139 44.4602 51.75C46.724 49.4862 47.9974 46.4167 48.001 43.2151H91.7756C91.7722 44.8011 92.0834 46.372 92.6911 47.837C93.2988 49.3019 94.191 50.6318 95.316 51.7497C96.4339 52.875 97.7638 53.7675 99.2289 54.3754C100.694 54.9832 102.265 55.2944 103.851 55.2909V128.5Z" fill="white"/>
<path d="M103.851 128.5H35.9253V55.2909C39.1269 55.2873 42.1963 54.0139 44.4602 51.75C46.724 49.4862 47.9974 46.4167 48.001 43.2151H91.7756C91.7722 44.8011 92.0834 46.372 92.6911 47.837C93.2988 49.3019 94.191 50.6318 95.316 51.7497C96.4339 52.875 97.7638 53.7675 99.2289 54.3754C100.694 54.9832 102.265 55.2944 103.851 55.2909V128.5Z" fill="url(#paint0_linear_6783_18663)"/>
<path d="M69.8885 92.2727C79.8924 92.2727 88.0021 84.163 88.0021 74.1591C88.0021 64.1552 79.8924 56.0455 69.8885 56.0455C59.8846 56.0455 51.7749 64.1552 51.7749 74.1591C51.7749 84.163 59.8846 92.2727 69.8885 92.2727Z" fill="#F3FAFF"/>
<path d="M76.2933 82.6982L69.8892 76.2941L63.485 82.6982L61.3503 80.5635L67.7545 74.1594L61.3503 67.7553L63.485 65.6206L69.8892 72.0247L76.2933 65.6206L78.428 67.7553L72.0239 74.1594L78.428 80.5635L76.2933 82.6982Z" fill="white"/>
<path d="M76.2933 82.6982L69.8892 76.2941L63.485 82.6982L61.3503 80.5635L67.7545 74.1594L61.3503 67.7553L63.485 65.6206L69.8892 72.0247L76.2933 65.6206L78.428 67.7553L72.0239 74.1594L78.428 80.5635L76.2933 82.6982Z" fill="url(#paint1_linear_6783_18663)"/>
<path d="M79.7003 96.8011H60.0772C58.8267 96.8011 57.813 97.8148 57.813 99.0653C57.813 100.316 58.8267 101.329 60.0772 101.329H79.7003C80.9508 101.329 81.9645 100.316 81.9645 99.0653C81.9645 97.8148 80.9508 96.8011 79.7003 96.8011Z" fill="#DFEAFB"/>
<path d="M86.493 105.858H53.2847C52.0342 105.858 51.0205 106.872 51.0205 108.122C51.0205 109.373 52.0342 110.386 53.2847 110.386H86.493C87.7435 110.386 88.7572 109.373 88.7572 108.122C88.7572 106.872 87.7435 105.858 86.493 105.858Z" fill="#DFEAFB"/>
<path d="M7.87744 43.5891V45.7874" stroke="#8CC8FA" stroke-width="2.921" stroke-linecap="round"/>
<path d="M1.79395 50.1833H3.82159" stroke="#8CC8FA" stroke-width="2.921" stroke-linecap="round"/>
<path d="M7.20068 56.0458V53.8476" stroke="#8CC8FA" stroke-width="2.921" stroke-linecap="round"/>
<path d="M13.2835 50.1833H11.2559" stroke="#8CC8FA" stroke-width="2.921" stroke-linecap="round"/>
<path d="M21.6981 110.386C23.1911 110.386 24.4017 111.699 24.4017 113.318C24.4017 114.936 23.1911 116.248 21.6981 116.248C20.2052 116.248 18.9946 114.936 18.9946 113.318" stroke="#8CC8FA" stroke-width="2.921" stroke-linecap="round"/>
<path fill-rule="evenodd" clip-rule="evenodd" d="M69.8892 5.12889C71.5278 4.56701 74.039 2.36724 74.6207 0C75.1475 2.09254 77.3571 4.56701 79.3515 4.75504C77.1071 5.62834 74.961 8.2218 74.6207 10.2585C74.3887 8.18213 71.4209 5.4315 69.8892 5.12889Z" fill="#8CC8FA"/>
<path fill-rule="evenodd" clip-rule="evenodd" d="M138.018 113.317C139.656 112.755 142.167 110.555 142.749 108.188C143.276 110.281 145.486 112.755 147.48 112.943C145.235 113.817 143.089 116.41 142.749 118.447C142.517 116.37 139.549 113.62 138.018 113.317Z" fill="#8CC8FA"/>
<path fill-rule="evenodd" clip-rule="evenodd" d="M138.018 50.1837C138.018 51.3982 137.11 52.3819 135.991 52.3819C134.87 52.3819 133.963 51.3982 133.963 50.1837C133.963 48.9691 134.87 47.9854 135.991 47.9854C137.11 47.9854 138.018 48.9691 138.018 50.1837Z" stroke="#8CC8FA" stroke-width="2.921" stroke-linecap="round"/>
<path fill-rule="evenodd" clip-rule="evenodd" d="M28.4571 5.24479C28.4571 6.45933 27.5491 7.44305 26.4295 7.44305C25.3092 7.44305 24.4019 6.45933 24.4019 5.24479C24.4019 4.03026 25.3092 3.04654 26.4295 3.04654C27.5491 3.04654 28.4571 4.03026 28.4571 5.24479Z" fill="#8CC8FA"/>
<defs>
<linearGradient id="paint0_linear_6783_18663" x1="69.8882" y1="43.2151" x2="69.8882" y2="128.5" gradientUnits="userSpaceOnUse">
<stop stop-color="#8CC8FA"/>
<stop offset="0.927" stop-color="#4B9EF9"/>
</linearGradient>
<linearGradient id="paint1_linear_6783_18663" x1="77.3606" y1="66.6879" x2="62.4176" y2="81.6308" gradientUnits="userSpaceOnUse">
<stop stop-color="#8CC8FA"/>
<stop offset="0.927" stop-color="#4B9EF9"/>
</linearGradient>
</defs>
</svg>
