<svg width="164" height="47" viewBox="0 0 164 47" fill="none" xmlns="http://www.w3.org/2000/svg">
<g filter="url(#filter0_b_37_5230)">
<rect x="0.136719" y="0.884277" width="162.874" height="45.8555" rx="5" fill="white" fill-opacity="0.8"/>
</g>
<path d="M36.2646 28.2788V18.097H42.5785V19.4194H37.8008V22.5217H42.1261V23.8392H37.8008V28.2788H36.2646ZM47.0045 28.4329C46.2886 28.4329 45.6638 28.2689 45.1302 27.9407C44.5966 27.6126 44.1823 27.1536 43.8873 26.5636C43.5923 25.9736 43.4448 25.2843 43.4448 24.4954C43.4448 23.7033 43.5923 23.0106 43.8873 22.4173C44.1823 21.824 44.5966 21.3633 45.1302 21.0352C45.6638 20.7071 46.2886 20.543 47.0045 20.543C47.7204 20.543 48.3452 20.7071 48.8788 21.0352C49.4124 21.3633 49.8267 21.824 50.1217 22.4173C50.4167 23.0106 50.5641 23.7033 50.5641 24.4954C50.5641 25.2843 50.4167 25.9736 50.1217 26.5636C49.8267 27.1536 49.4124 27.6126 48.8788 27.9407C48.3452 28.2689 47.7204 28.4329 47.0045 28.4329ZM47.0095 27.1851C47.4735 27.1851 47.8579 27.0624 48.1629 26.8172C48.4678 26.5719 48.6932 26.2454 48.839 25.8378C48.9881 25.4301 49.0627 24.981 49.0627 24.4905C49.0627 24.0032 48.9881 23.5558 48.839 23.1481C48.6932 22.7371 48.4678 22.4074 48.1629 22.1588C47.8579 21.9102 47.4735 21.7859 47.0095 21.7859C46.5421 21.7859 46.1543 21.9102 45.8461 22.1588C45.5412 22.4074 45.3141 22.7371 45.165 23.1481C45.0192 23.5558 44.9462 24.0032 44.9462 24.4905C44.9462 24.981 45.0192 25.4301 45.165 25.8378C45.3141 26.2454 45.5412 26.5719 45.8461 26.8172C46.1543 27.0624 46.5421 27.1851 47.0095 27.1851ZM55.44 28.4329C54.7241 28.4329 54.0994 28.2689 53.5657 27.9407C53.0321 27.6126 52.6178 27.1536 52.3228 26.5636C52.0279 25.9736 51.8804 25.2843 51.8804 24.4954C51.8804 23.7033 52.0279 23.0106 52.3228 22.4173C52.6178 21.824 53.0321 21.3633 53.5657 21.0352C54.0994 20.7071 54.7241 20.543 55.44 20.543C56.1559 20.543 56.7807 20.7071 57.3143 21.0352C57.8479 21.3633 58.2622 21.824 58.5572 22.4173C58.8522 23.0106 58.9997 23.7033 58.9997 24.4954C58.9997 25.2843 58.8522 25.9736 58.5572 26.5636C58.2622 27.1536 57.8479 27.6126 57.3143 27.9407C56.7807 28.2689 56.1559 28.4329 55.44 28.4329ZM55.445 27.1851C55.909 27.1851 56.2935 27.0624 56.5984 26.8172C56.9033 26.5719 57.1287 26.2454 57.2745 25.8378C57.4237 25.4301 57.4983 24.981 57.4983 24.4905C57.4983 24.0032 57.4237 23.5558 57.2745 23.1481C57.1287 22.7371 56.9033 22.4074 56.5984 22.1588C56.2935 21.9102 55.909 21.7859 55.445 21.7859C54.9777 21.7859 54.5899 21.9102 54.2816 22.1588C53.9767 22.4074 53.7497 22.7371 53.6005 23.1481C53.4547 23.5558 53.3818 24.0032 53.3818 24.4905C53.3818 24.981 53.4547 25.4301 53.6005 25.8378C53.7497 26.2454 53.9767 26.5719 54.2816 26.8172C54.5899 27.0624 54.9777 27.1851 55.445 27.1851ZM63.5176 28.428C62.9011 28.428 62.351 28.2705 61.8671 27.9557C61.3865 27.6375 61.0086 27.1851 60.7335 26.5984C60.4618 26.0084 60.3259 25.3008 60.3259 24.4755C60.3259 23.6503 60.4634 22.9443 60.7385 22.3576C61.0169 21.771 61.3981 21.3219 61.882 21.0103C62.3659 20.6988 62.9144 20.543 63.5276 20.543C64.0015 20.543 64.3827 20.6226 64.671 20.7816C64.9627 20.9374 65.1881 21.1197 65.3472 21.3285C65.5096 21.5373 65.6355 21.7213 65.725 21.8804H65.8145V18.097H67.301V28.2788H65.8493V27.0906H65.725C65.6355 27.253 65.5063 27.4386 65.3372 27.6474C65.1715 27.8562 64.9428 28.0385 64.6511 28.1943C64.3595 28.3501 63.9816 28.428 63.5176 28.428ZM63.8457 27.1602C64.2733 27.1602 64.6346 27.0475 64.9296 26.8221C65.2278 26.5934 65.4532 26.2769 65.6057 25.8726C65.7615 25.4682 65.8394 24.9976 65.8394 24.4606C65.8394 23.9303 65.7631 23.4663 65.6107 23.0686C65.4582 22.6709 65.2345 22.361 64.9395 22.1389C64.6445 21.9168 64.2799 21.8058 63.8457 21.8058C63.3983 21.8058 63.0254 21.9218 62.7271 22.1538C62.4288 22.3858 62.2035 22.7023 62.051 23.1034C61.9019 23.5044 61.8273 23.9568 61.8273 24.4606C61.8273 24.971 61.9035 25.4301 62.056 25.8378C62.2084 26.2454 62.4338 26.5686 62.7321 26.8072C63.0337 27.0425 63.4049 27.1602 63.8457 27.1602ZM76.0908 28.423C75.408 28.423 74.8197 28.2987 74.3259 28.0501C73.8353 27.8015 73.4575 27.4635 73.1923 27.0359C72.9272 26.605 72.7946 26.1178 72.7946 25.5743C72.7946 25.16 72.8808 24.7921 73.0531 24.4706C73.2255 24.1458 73.4658 23.8458 73.774 23.5707C74.0823 23.2956 74.4386 23.0189 74.8429 22.7405L76.4835 21.5821C76.7619 21.3998 76.979 21.2075 77.1348 21.0054C77.2906 20.7999 77.3685 20.5463 77.3685 20.2447C77.3685 20.0061 77.2657 19.7774 77.0602 19.5586C76.8547 19.3399 76.5796 19.2305 76.235 19.2305C75.9963 19.2305 75.7859 19.2885 75.6036 19.4045C75.4246 19.5205 75.2837 19.6697 75.181 19.852C75.0815 20.0309 75.0318 20.2199 75.0318 20.4187C75.0318 20.6507 75.0948 20.8844 75.2207 21.1197C75.35 21.355 75.5157 21.5986 75.7179 21.8505C75.9201 22.0991 76.1322 22.3576 76.3543 22.6261L81.0823 28.2788H79.4019L75.4892 23.6801C75.1611 23.2923 74.8562 22.9277 74.5744 22.5863C74.2927 22.2416 74.064 21.8936 73.8884 21.5423C73.716 21.1877 73.6298 20.8049 73.6298 20.3939C73.6298 19.9265 73.7359 19.5122 73.948 19.151C74.1635 18.7864 74.4634 18.5013 74.8479 18.2959C75.2323 18.0904 75.6831 17.9876 76.2002 17.9876C76.7238 17.9876 77.1729 18.0904 77.5475 18.2959C77.9253 18.498 78.2153 18.7682 78.4175 19.1062C78.623 19.441 78.7257 19.8072 78.7257 20.2049C78.7257 20.6888 78.6047 21.1164 78.3628 21.4876C78.1242 21.8555 77.7944 22.1936 77.3734 22.5018L75.3301 24.0082C74.9324 24.2999 74.6556 24.5882 74.4999 24.8733C74.3474 25.155 74.2712 25.3754 74.2712 25.5345C74.2712 25.8262 74.3457 26.0963 74.4949 26.3449C74.6474 26.5934 74.8595 26.7923 75.1313 26.9415C75.4064 27.0906 75.7278 27.1652 76.0957 27.1652C76.4736 27.1652 76.8415 27.084 77.1994 26.9216C77.5607 26.7558 77.8872 26.5189 78.1788 26.2106C78.4738 25.9024 78.7075 25.5328 78.8798 25.102C79.0522 24.6711 79.1384 24.1888 79.1384 23.6552H80.4807C80.4807 24.3115 80.4061 24.8666 80.257 25.3207C80.1078 25.7715 79.9272 26.1394 79.7151 26.4244C79.5063 26.7061 79.3091 26.9265 79.1234 27.0856C79.0638 27.1387 79.0074 27.1917 78.9544 27.2447C78.9014 27.2977 78.845 27.3508 78.7854 27.4038C78.4407 27.7518 78.0231 28.0087 77.5325 28.1744C77.0453 28.3401 76.5647 28.423 76.0908 28.423ZM86.0712 28.2788V18.097H89.7999C90.5225 18.097 91.1207 18.2163 91.5947 18.4549C92.0686 18.6903 92.4233 19.0101 92.6586 19.4145C92.8939 19.8155 93.0116 20.2679 93.0116 20.7717C93.0116 21.1959 92.9337 21.5539 92.7779 21.8456C92.6221 22.1339 92.4133 22.3659 92.1515 22.5416C91.893 22.7139 91.6079 22.8399 91.2964 22.9194V23.0189C91.6345 23.0354 91.9642 23.1448 92.2857 23.347C92.6105 23.5459 92.879 23.8292 93.0911 24.1971C93.3033 24.565 93.4093 25.0125 93.4093 25.5395C93.4093 26.0598 93.2867 26.5272 93.0414 26.9415C92.7995 27.3524 92.4249 27.6789 91.9178 27.9209C91.4107 28.1595 90.7628 28.2788 89.9739 28.2788H86.0712ZM87.6075 26.9613H89.8248C90.5606 26.9613 91.0876 26.8188 91.4058 26.5338C91.7239 26.2487 91.883 25.8924 91.883 25.4649C91.883 25.1434 91.8018 24.8484 91.6394 24.5799C91.477 24.3115 91.245 24.0977 90.9434 23.9386C90.6451 23.7795 90.2905 23.7 89.8795 23.7H87.6075V26.9613ZM87.6075 22.5018H89.6657C90.0104 22.5018 90.3203 22.4355 90.5954 22.303C90.8738 22.1704 91.0942 21.9848 91.2566 21.7461C91.4223 21.5042 91.5052 21.2191 91.5052 20.891C91.5052 20.4701 91.3577 20.1171 91.0627 19.8321C90.7677 19.547 90.3153 19.4045 89.7055 19.4045H87.6075V22.5018ZM98.4033 28.4329C97.6509 28.4329 97.0029 28.2722 96.4594 27.9507C95.9191 27.6259 95.5015 27.1701 95.2065 26.5835C94.9149 25.9935 94.769 25.3025 94.769 24.5103C94.769 23.7281 94.9149 23.0388 95.2065 22.4422C95.5015 21.8456 95.9125 21.3799 96.4395 21.0451C96.9698 20.7104 97.5896 20.543 98.2989 20.543C98.7297 20.543 99.1474 20.6143 99.5517 20.7568C99.9561 20.8993 100.319 21.123 100.64 21.428C100.962 21.7329 101.216 22.129 101.401 22.6162C101.587 23.1001 101.68 23.6884 101.68 24.3811V24.9081H95.6092V23.7944H100.223C100.223 23.4033 100.143 23.057 99.9842 22.7554C99.8252 22.4504 99.6014 22.2102 99.3131 22.0345C99.028 21.8588 98.6933 21.771 98.3088 21.771C97.8912 21.771 97.5266 21.8737 97.2151 22.0792C96.9068 22.2814 96.6682 22.5466 96.4992 22.8747C96.3334 23.1995 96.2506 23.5525 96.2506 23.9336V24.8037C96.2506 25.3141 96.3401 25.7483 96.519 26.1062C96.7013 26.4642 96.9549 26.7376 97.2797 26.9265C97.6045 27.1121 97.984 27.2049 98.4182 27.2049C98.6999 27.2049 98.9568 27.1652 99.1888 27.0856C99.4208 27.0028 99.6213 26.8801 99.7903 26.7177C99.9594 26.5553 100.089 26.3548 100.178 26.1162L101.585 26.3697C101.472 26.784 101.27 27.1469 100.979 27.4585C100.69 27.7667 100.327 28.007 99.8898 28.1794C99.4556 28.3484 98.9601 28.4329 98.4033 28.4329ZM109.643 20.6424L106.874 28.2788H105.283L102.509 20.6424H104.104L106.038 26.5189H106.118L108.047 20.6424H109.643ZM114.071 28.4329C113.319 28.4329 112.671 28.2722 112.127 27.9507C111.587 27.6259 111.169 27.1701 110.875 26.5835C110.583 25.9935 110.437 25.3025 110.437 24.5103C110.437 23.7281 110.583 23.0388 110.875 22.4422C111.169 21.8456 111.58 21.3799 112.107 21.0451C112.638 20.7104 113.258 20.543 113.967 20.543C114.398 20.543 114.815 20.6143 115.22 20.7568C115.624 20.8993 115.987 21.123 116.308 21.428C116.63 21.7329 116.884 22.129 117.069 22.6162C117.255 23.1001 117.348 23.6884 117.348 24.3811V24.9081H111.277V23.7944H115.891C115.891 23.4033 115.811 23.057 115.652 22.7554C115.493 22.4504 115.269 22.2102 114.981 22.0345C114.696 21.8588 114.361 21.771 113.977 21.771C113.559 21.771 113.195 21.8737 112.883 22.0792C112.575 22.2814 112.336 22.5466 112.167 22.8747C112.001 23.1995 111.919 23.5525 111.919 23.9336V24.8037C111.919 25.3141 112.008 25.7483 112.187 26.1062C112.369 26.4642 112.623 26.7376 112.948 26.9265C113.272 27.1121 113.652 27.2049 114.086 27.2049C114.368 27.2049 114.625 27.1652 114.857 27.0856C115.089 27.0028 115.289 26.8801 115.458 26.7177C115.627 26.5553 115.757 26.3548 115.846 26.1162L117.253 26.3697C117.14 26.784 116.938 27.1469 116.647 27.4585C116.358 27.7667 115.995 28.007 115.558 28.1794C115.124 28.3484 114.628 28.4329 114.071 28.4329ZM118.997 28.2788V20.6424H120.434V21.8555H120.513C120.652 21.4445 120.898 21.1214 121.249 20.8861C121.604 20.6474 122.005 20.5281 122.452 20.5281C122.545 20.5281 122.654 20.5314 122.78 20.538C122.909 20.5447 123.011 20.553 123.083 20.5629V21.9848C123.024 21.9682 122.918 21.95 122.765 21.9301C122.613 21.9069 122.46 21.8953 122.308 21.8953C121.957 21.8953 121.643 21.9699 121.368 22.119C121.097 22.2648 120.881 22.4687 120.722 22.7305C120.563 22.989 120.483 23.284 120.483 23.6155V28.2788H118.997ZM126.524 28.4478C126.04 28.4478 125.602 28.3584 125.211 28.1794C124.82 27.9971 124.51 27.7336 124.282 27.3889C124.056 27.0442 123.944 26.6216 123.944 26.1211C123.944 25.6903 124.026 25.3356 124.192 25.0572C124.358 24.7788 124.582 24.5584 124.863 24.396C125.145 24.2336 125.46 24.111 125.808 24.0281C126.156 23.9452 126.511 23.8823 126.872 23.8392C127.329 23.7861 127.7 23.7431 127.985 23.7099C128.271 23.6735 128.478 23.6155 128.607 23.5359C128.736 23.4564 128.801 23.3271 128.801 23.1481V23.1133C128.801 22.6791 128.678 22.3427 128.433 22.1041C128.191 21.8655 127.83 21.7461 127.349 21.7461C126.849 21.7461 126.454 21.8572 126.166 22.0792C125.881 22.298 125.684 22.5416 125.574 22.8101L124.177 22.4919C124.343 22.0279 124.585 21.6533 124.903 21.3683C125.225 21.0799 125.594 20.8711 126.012 20.7419C126.429 20.6093 126.869 20.543 127.329 20.543C127.634 20.543 127.957 20.5795 128.299 20.6524C128.643 20.722 128.965 20.8513 129.263 21.0402C129.565 21.2291 129.812 21.4992 130.004 21.8505C130.196 22.1986 130.292 22.651 130.292 23.2078V28.2788H128.841V27.2348H128.781C128.685 27.427 128.541 27.6159 128.348 27.8015C128.156 27.9871 127.909 28.1413 127.608 28.2639C127.306 28.3865 126.945 28.4478 126.524 28.4478ZM126.847 27.2547C127.258 27.2547 127.609 27.1735 127.901 27.0111C128.196 26.8486 128.42 26.6365 128.572 26.3747C128.728 26.1095 128.806 25.8262 128.806 25.5245V24.5402C128.753 24.5932 128.65 24.6429 128.498 24.6893C128.348 24.7324 128.178 24.7705 127.985 24.8037C127.793 24.8335 127.606 24.8617 127.424 24.8882C127.241 24.9114 127.089 24.9313 126.966 24.9478C126.678 24.9843 126.414 25.0456 126.176 25.1318C125.941 25.218 125.752 25.3423 125.609 25.5047C125.47 25.6638 125.4 25.8759 125.4 26.141C125.4 26.5089 125.536 26.7873 125.808 26.9763C126.08 27.1619 126.426 27.2547 126.847 27.2547ZM135.474 31.3015C134.867 31.3015 134.345 31.222 133.908 31.0629C133.474 30.9038 133.119 30.6933 132.844 30.4315C132.569 30.1697 132.363 29.883 132.227 29.5714L133.505 29.0444C133.595 29.1903 133.714 29.3444 133.863 29.5068C134.016 29.6725 134.221 29.8134 134.48 29.9294C134.741 30.0454 135.078 30.1034 135.489 30.1034C136.052 30.1034 136.518 29.9658 136.886 29.6907C137.254 29.419 137.438 28.9848 137.438 28.3882V26.8868H137.343C137.254 27.0492 137.125 27.2298 136.955 27.4287C136.79 27.6275 136.561 27.7999 136.269 27.9457C135.978 28.0915 135.598 28.1645 135.131 28.1645C134.528 28.1645 133.984 28.0236 133.5 27.7419C133.02 27.4568 132.638 27.0376 132.357 26.4841C132.078 25.9272 131.939 25.2428 131.939 24.4308C131.939 23.6188 132.077 22.9227 132.352 22.3427C132.63 21.7627 133.011 21.3186 133.495 21.0103C133.979 20.6988 134.528 20.543 135.141 20.543C135.615 20.543 135.998 20.6226 136.289 20.7816C136.581 20.9374 136.808 21.1197 136.97 21.3285C137.136 21.5373 137.264 21.7213 137.353 21.8804H137.463V20.6424H138.919V28.4478C138.919 29.1041 138.767 29.6427 138.462 30.0636C138.157 30.4845 137.744 30.7961 137.224 30.9983C136.707 31.2004 136.124 31.3015 135.474 31.3015ZM135.459 26.9315C135.887 26.9315 136.248 26.8321 136.543 26.6332C136.841 26.431 137.067 26.1427 137.219 25.7682C137.375 25.3903 137.453 24.9379 137.453 24.4109C137.453 23.8972 137.376 23.4448 137.224 23.0537C137.071 22.6626 136.848 22.3576 136.553 22.1389C136.258 21.9168 135.893 21.8058 135.459 21.8058C135.012 21.8058 134.639 21.9218 134.34 22.1538C134.042 22.3825 133.817 22.6941 133.664 23.0885C133.515 23.4829 133.441 23.9237 133.441 24.4109C133.441 24.9114 133.517 25.3505 133.669 25.7284C133.822 26.1062 134.047 26.4012 134.345 26.6133C134.647 26.8254 135.018 26.9315 135.459 26.9315ZM144.204 28.4329C143.452 28.4329 142.804 28.2722 142.26 27.9507C141.72 27.6259 141.302 27.1701 141.007 26.5835C140.716 25.9935 140.57 25.3025 140.57 24.5103C140.57 23.7281 140.716 23.0388 141.007 22.4422C141.302 21.8456 141.713 21.3799 142.24 21.0451C142.771 20.7104 143.39 20.543 144.1 20.543C144.531 20.543 144.948 20.6143 145.352 20.7568C145.757 20.8993 146.12 21.123 146.441 21.428C146.763 21.7329 147.016 22.129 147.202 22.6162C147.388 23.1001 147.48 23.6884 147.48 24.3811V24.9081H141.41V23.7944H146.024C146.024 23.4033 145.944 23.057 145.785 22.7554C145.626 22.4504 145.402 22.2102 145.114 22.0345C144.829 21.8588 144.494 21.771 144.11 21.771C143.692 21.771 143.327 21.8737 143.016 22.0792C142.708 22.2814 142.469 22.5466 142.3 22.8747C142.134 23.1995 142.051 23.5525 142.051 23.9336V24.8037C142.051 25.3141 142.141 25.7483 142.32 26.1062C142.502 26.4642 142.756 26.7376 143.08 26.9265C143.405 27.1121 143.785 27.2049 144.219 27.2049C144.501 27.2049 144.758 27.1652 144.99 27.0856C145.222 27.0028 145.422 26.8801 145.591 26.7177C145.76 26.5553 145.889 26.3548 145.979 26.1162L147.386 26.3697C147.273 26.784 147.071 27.1469 146.779 27.4585C146.491 27.7667 146.128 28.007 145.691 28.1794C145.256 28.3484 144.761 28.4329 144.204 28.4329Z" fill="#14142B"/>
<mask id="mask0_37_5230" style="mask-type:alpha" maskUnits="userSpaceOnUse" x="9" y="13" width="21" height="21">
<rect x="9.13672" y="13.5" width="20" height="20" fill="#D9D9D9"/>
</mask>
<g mask="url(#mask0_37_5230)">
<path d="M14.1367 31V29.3333H18.3034V25.1667L11.6367 17.6667V16H26.6367V17.6667L19.9701 25.1667V29.3333H24.1367V31H14.1367ZM15.3451 19.3333H22.9284L24.4284 17.6667H13.8451L15.3451 19.3333ZM19.1367 23.5833L21.4492 21H16.8242L19.1367 23.5833Z" fill="#1C1B1F"/>
</g>
<defs>
<filter id="filter0_b_37_5230" x="-24.8633" y="-24.1157" width="212.874" height="95.8555" filterUnits="userSpaceOnUse" color-interpolation-filters="sRGB">
<feFlood flood-opacity="0" result="BackgroundImageFix"/>
<feGaussianBlur in="BackgroundImageFix" stdDeviation="12.5"/>
<feComposite in2="SourceAlpha" operator="in" result="effect1_backgroundBlur_37_5230"/>
<feBlend mode="normal" in="SourceGraphic" in2="effect1_backgroundBlur_37_5230" result="shape"/>
</filter>
</defs>
</svg>
