<svg width="115" height="47" viewBox="0 0 115 47" fill="none" xmlns="http://www.w3.org/2000/svg">
<g filter="url(#filter0_b_37_5228)">
<rect x="0.981445" y="0.598633" width="113.655" height="45.8555" rx="5" fill="white" fill-opacity="0.8"/>
</g>
<path d="M43.0112 29.5V19.3182H44.5474V28.1776H49.161V29.5H43.0112ZM50.7942 29.5V21.8636H52.2807V29.5H50.7942ZM51.5449 20.6854C51.2864 20.6854 51.0643 20.5992 50.8787 20.4268C50.6964 20.2512 50.6053 20.0424 50.6053 19.8004C50.6053 19.5552 50.6964 19.3464 50.8787 19.174C51.0643 18.9983 51.2864 18.9105 51.5449 18.9105C51.8034 18.9105 52.0239 18.9983 52.2061 19.174C52.3917 19.3464 52.4846 19.5552 52.4846 19.8004C52.4846 20.0424 52.3917 20.2512 52.2061 20.4268C52.0239 20.5992 51.8034 20.6854 51.5449 20.6854ZM57.9148 21.8636V23.0568H53.5994V21.8636H57.9148ZM54.7827 29.5V20.9787C54.7827 20.5014 54.8871 20.1053 55.0959 19.7905C55.3047 19.4723 55.5814 19.2353 55.9261 19.0795C56.2708 18.9205 56.6454 18.8409 57.0497 18.8409C57.348 18.8409 57.6032 18.8658 57.8153 18.9155C58.0275 18.9619 58.1849 19.005 58.2876 19.0447L57.9396 20.2479C57.87 20.228 57.7805 20.2048 57.6712 20.1783C57.5618 20.1484 57.4292 20.1335 57.2734 20.1335C56.9122 20.1335 56.6536 20.223 56.4979 20.402C56.3454 20.581 56.2692 20.8395 56.2692 21.1776V29.5H54.7827ZM62.4389 29.6541C61.6866 29.6541 61.0386 29.4934 60.495 29.1719C59.9548 28.8471 59.5372 28.3913 59.2422 27.8047C58.9505 27.2147 58.8047 26.5237 58.8047 25.7315C58.8047 24.9493 58.9505 24.2599 59.2422 23.6634C59.5372 23.0668 59.9482 22.6011 60.4751 22.2663C61.0054 21.9316 61.6252 21.7642 62.3345 21.7642C62.7654 21.7642 63.183 21.8355 63.5874 21.978C63.9917 22.1205 64.3546 22.3442 64.6761 22.6491C64.9976 22.9541 65.2512 23.3501 65.4368 23.8374C65.6224 24.3213 65.7152 24.9096 65.7152 25.6023V26.1293H59.6449V25.0156H64.2585C64.2585 24.6245 64.179 24.2782 64.0199 23.9766C63.8608 23.6716 63.6371 23.4313 63.3487 23.2557C63.0637 23.08 62.7289 22.9922 62.3445 22.9922C61.9268 22.9922 61.5623 23.0949 61.2507 23.3004C60.9425 23.5026 60.7038 23.7678 60.5348 24.0959C60.3691 24.4207 60.2862 24.7737 60.2862 25.1548V26.0249C60.2862 26.5353 60.3757 26.9695 60.5547 27.3274C60.737 27.6854 60.9905 27.9588 61.3153 28.1477C61.6402 28.3333 62.0196 28.4261 62.4538 28.4261C62.7356 28.4261 62.9924 28.3864 63.2244 28.3068C63.4564 28.224 63.657 28.1013 63.826 27.9389C63.995 27.7765 64.1243 27.576 64.2138 27.3374L65.6207 27.5909C65.508 28.0052 65.3059 28.3681 65.0142 28.6797C64.7259 28.9879 64.3629 29.2282 63.9254 29.4006C63.4912 29.5696 62.9957 29.6541 62.4389 29.6541ZM73.0868 23.728L71.7395 23.9666C71.6832 23.7943 71.5937 23.6302 71.4711 23.4744C71.3517 23.3187 71.1893 23.1911 70.9838 23.0916C70.7784 22.9922 70.5215 22.9425 70.2132 22.9425C69.7923 22.9425 69.441 23.0369 69.1593 23.2259C68.8775 23.4115 68.7367 23.6518 68.7367 23.9467C68.7367 24.2019 68.8311 24.4074 69.0201 24.5632C69.209 24.719 69.5139 24.8466 69.9348 24.946L71.1479 25.2244C71.8506 25.3868 72.3742 25.6371 72.7189 25.9751C73.0636 26.3132 73.236 26.7524 73.236 27.2926C73.236 27.75 73.1034 28.1577 72.8382 28.5156C72.5764 28.8703 72.2102 29.1487 71.7395 29.3509C71.2722 29.553 70.7303 29.6541 70.1138 29.6541C69.2587 29.6541 68.561 29.4718 68.0208 29.1072C67.4805 28.7393 67.1491 28.2173 67.0265 27.5412L68.4632 27.3224C68.5527 27.697 68.7367 27.9804 69.0151 28.1726C69.2935 28.3615 69.6564 28.456 70.1039 28.456C70.5911 28.456 70.9805 28.3549 71.2722 28.1527C71.5639 27.9472 71.7097 27.697 71.7097 27.402C71.7097 27.1634 71.6202 26.9628 71.4412 26.8004C71.2656 26.638 70.9954 26.5154 70.6309 26.4325L69.3382 26.1491C68.6257 25.9867 68.0987 25.7282 67.7573 25.3736C67.4192 25.0189 67.2502 24.5698 67.2502 24.0263C67.2502 23.5755 67.3761 23.1811 67.628 22.843C67.8799 22.505 68.2279 22.2415 68.6721 22.0526C69.1162 21.8603 69.6249 21.7642 70.1983 21.7642C71.0236 21.7642 71.6732 21.9432 72.1472 22.3011C72.6212 22.6558 72.9344 23.1314 73.0868 23.728ZM78.435 21.8636V23.0568H74.2638V21.8636H78.435ZM75.3825 20.0341H76.869V27.2578C76.869 27.5462 76.9121 27.7633 76.9982 27.9091C77.0844 28.0516 77.1954 28.1494 77.3313 28.2024C77.4705 28.2521 77.6213 28.277 77.7837 28.277C77.9031 28.277 78.0075 28.2687 78.0969 28.2521C78.1864 28.2356 78.256 28.2223 78.3058 28.2124L78.5742 29.4403C78.488 29.4735 78.3654 29.5066 78.2063 29.5398C78.0472 29.5762 77.8484 29.5961 77.6097 29.5994C77.2186 29.6061 76.854 29.5365 76.516 29.3906C76.1779 29.2448 75.9045 29.0194 75.6957 28.7145C75.4869 28.4096 75.3825 28.0268 75.3825 27.5661V20.0341ZM81.019 32.3636C80.7969 32.3636 80.5948 32.3454 80.4125 32.3089C80.2302 32.2758 80.0943 32.2393 80.0048 32.1996L80.3627 30.9815C80.6345 31.0545 80.8765 31.0859 81.0886 31.076C81.3007 31.0661 81.488 30.9865 81.6504 30.8374C81.8161 30.6882 81.9619 30.4446 82.0879 30.1065L82.2718 29.5994L79.4778 21.8636H81.0687L83.0027 27.7898H83.0822L85.0162 21.8636H86.612L83.465 30.5192C83.3192 30.9169 83.1336 31.2533 82.9082 31.5284C82.6828 31.8068 82.4144 32.0156 82.1028 32.1548C81.7913 32.294 81.43 32.3636 81.019 32.3636ZM89.4956 19.3182V29.5H88.0091V19.3182H89.4956ZM94.7866 29.6541C94.0342 29.6541 93.3862 29.4934 92.8427 29.1719C92.3024 28.8471 91.8848 28.3913 91.5898 27.8047C91.2982 27.2147 91.1523 26.5237 91.1523 25.7315C91.1523 24.9493 91.2982 24.2599 91.5898 23.6634C91.8848 23.0668 92.2958 22.6011 92.8228 22.2663C93.3531 21.9316 93.9729 21.7642 94.6822 21.7642C95.113 21.7642 95.5307 21.8355 95.935 21.978C96.3394 22.1205 96.7023 22.3442 97.0238 22.6491C97.3453 22.9541 97.5988 23.3501 97.7844 23.8374C97.9701 24.3213 98.0629 24.9096 98.0629 25.6023V26.1293H91.9925V25.0156H96.6062C96.6062 24.6245 96.5266 24.2782 96.3675 23.9766C96.2085 23.6716 95.9847 23.4313 95.6964 23.2557C95.4113 23.08 95.0766 22.9922 94.6921 22.9922C94.2745 22.9922 93.9099 23.0949 93.5984 23.3004C93.2901 23.5026 93.0515 23.7678 92.8825 24.0959C92.7167 24.4207 92.6339 24.7737 92.6339 25.1548V26.0249C92.6339 26.5353 92.7234 26.9695 92.9023 27.3274C93.0846 27.6854 93.3382 27.9588 93.663 28.1477C93.9878 28.3333 94.3673 28.4261 94.8015 28.4261C95.0832 28.4261 95.3401 28.3864 95.5721 28.3068C95.8041 28.224 96.0046 28.1013 96.1737 27.9389C96.3427 27.7765 96.4719 27.576 96.5614 27.3374L97.9684 27.5909C97.8557 28.0052 97.6535 28.3681 97.3619 28.6797C97.0735 28.9879 96.7106 29.2282 96.2731 29.4006C95.8389 29.5696 95.3434 29.6541 94.7866 29.6541Z" fill="#14142B"/>
<mask id="mask0_37_5228" style="mask-type:alpha" maskUnits="userSpaceOnUse" x="12" y="14" width="21" height="20">
<rect x="12.6367" y="14" width="20" height="20" fill="#D9D9D9"/>
</mask>
<g mask="url(#mask0_37_5228)">
<path d="M17.6365 23.125L16.8032 23.5833C16.6087 23.6944 16.4004 23.7222 16.1782 23.6667C15.9559 23.6111 15.7893 23.4861 15.6782 23.2917L14.0115 20.375C13.9004 20.1806 13.8726 19.9722 13.9282 19.75C13.9837 19.5278 14.1087 19.3611 14.3032 19.25L19.0948 16.5H20.5532C20.6782 16.5 20.7789 16.5382 20.8553 16.6146C20.9316 16.691 20.9698 16.7917 20.9698 16.9167V17.3333C20.9698 17.7917 21.133 18.184 21.4594 18.5104C21.7858 18.8368 22.1782 19 22.6365 19C23.0948 19 23.4872 18.8368 23.8136 18.5104C24.14 18.184 24.3032 17.7917 24.3032 17.3333V16.9167C24.3032 16.7917 24.3414 16.691 24.4178 16.6146C24.4941 16.5382 24.5948 16.5 24.7198 16.5H26.1782L30.9698 19.25C31.1643 19.3611 31.2893 19.5278 31.3448 19.75C31.4004 19.9722 31.3726 20.1806 31.2615 20.375L29.5948 23.2917C29.4837 23.4861 29.3205 23.6076 29.1053 23.6563C28.89 23.7049 28.6782 23.6736 28.4698 23.5625L27.6365 23.1458V30.6667C27.6365 30.9028 27.5566 31.1007 27.3969 31.2604C27.2372 31.4201 27.0393 31.5 26.8032 31.5H18.4698C18.2337 31.5 18.0358 31.4201 17.8761 31.2604C17.7164 31.1007 17.6365 30.9028 17.6365 30.6667V23.125ZM19.3032 20.3333V29.8333H25.9698V20.3333L28.5532 21.75L29.4282 20.2917L25.8448 18.2083C25.6365 18.9167 25.2441 19.5035 24.6678 19.9687C24.0914 20.434 23.4143 20.6667 22.6365 20.6667C21.8587 20.6667 21.1816 20.434 20.6053 19.9687C20.0289 19.5035 19.6365 18.9167 19.4282 18.2083L15.8448 20.2917L16.7198 21.75L19.3032 20.3333Z" fill="#1C1B1F"/>
</g>
<defs>
<filter id="filter0_b_37_5228" x="-24.0186" y="-24.4014" width="163.655" height="95.8555" filterUnits="userSpaceOnUse" color-interpolation-filters="sRGB">
<feFlood flood-opacity="0" result="BackgroundImageFix"/>
<feGaussianBlur in="BackgroundImageFix" stdDeviation="12.5"/>
<feComposite in2="SourceAlpha" operator="in" result="effect1_backgroundBlur_37_5228"/>
<feBlend mode="normal" in="SourceGraphic" in2="effect1_backgroundBlur_37_5228" result="shape"/>
</filter>
</defs>
</svg>
