<svg width="172" height="47" viewBox="0 0 172 47" fill="none" xmlns="http://www.w3.org/2000/svg">
<g filter="url(#filter0_b_37_5229)">
<rect x="0.636719" y="0.80127" width="170.861" height="45.8555" rx="5" fill="white" fill-opacity="0.8"/>
</g>
<path d="M46.4717 21.2683C46.4186 20.7976 46.1999 20.4331 45.8154 20.1745C45.431 19.9127 44.9471 19.7818 44.3637 19.7818C43.9461 19.7818 43.5848 19.8481 43.2799 19.9806C42.975 20.1099 42.738 20.2889 42.569 20.5176C42.4033 20.743 42.3204 20.9998 42.3204 21.2882C42.3204 21.5301 42.3767 21.7389 42.4894 21.9146C42.6054 22.0903 42.7562 22.2377 42.9419 22.3571C43.1308 22.4731 43.3329 22.5708 43.5484 22.6504C43.7638 22.7266 43.971 22.7896 44.1698 22.8393L45.1642 23.0978C45.489 23.1774 45.8221 23.2851 46.1634 23.421C46.5048 23.5569 46.8213 23.7359 47.113 23.9579C47.4047 24.18 47.64 24.4551 47.819 24.7832C48.0013 25.1113 48.0924 25.5041 48.0924 25.9615C48.0924 26.5382 47.9433 27.0502 47.645 27.4977C47.35 27.9451 46.9208 28.2981 46.3573 28.5566C45.7972 28.8152 45.1194 28.9444 44.324 28.9444C43.5616 28.9444 42.9021 28.8234 42.3453 28.5815C41.7884 28.3395 41.3526 27.9965 41.0377 27.5524C40.7229 27.1049 40.5489 26.5746 40.5157 25.9615H42.0569C42.0867 26.3294 42.2061 26.6359 42.4149 26.8812C42.627 27.1232 42.8971 27.3038 43.2252 27.4231C43.5567 27.5391 43.9196 27.5971 44.314 27.5971C44.7482 27.5971 45.1343 27.5292 45.4724 27.3933C45.8138 27.2541 46.0822 27.0618 46.2778 26.8166C46.4733 26.568 46.5711 26.278 46.5711 25.9466C46.5711 25.6449 46.4849 25.398 46.3126 25.2058C46.1436 25.0136 45.9132 24.8545 45.6215 24.7285C45.3332 24.6026 45.0067 24.4915 44.6421 24.3954L43.439 24.0673C42.6237 23.8452 41.9774 23.5188 41.5001 23.0879C41.0261 22.657 40.7892 22.0869 40.7892 21.3777C40.7892 20.791 40.9482 20.2789 41.2664 19.8414C41.5846 19.4039 42.0155 19.0642 42.559 18.8223C43.1026 18.577 43.7158 18.4544 44.3985 18.4544C45.0879 18.4544 45.6961 18.5753 46.2231 18.8173C46.7534 19.0592 47.171 19.3923 47.4759 19.8166C47.7809 20.2375 47.94 20.7214 47.9532 21.2683H46.4717ZM52.0312 28.9444C51.5473 28.9444 51.1098 28.8549 50.7187 28.676C50.3276 28.4937 50.0177 28.2302 49.789 27.8855C49.5636 27.5408 49.4509 27.1182 49.4509 26.6177C49.4509 26.1868 49.5338 25.8322 49.6995 25.5538C49.8652 25.2754 50.0889 25.055 50.3706 24.8926C50.6524 24.7302 50.9672 24.6075 51.3153 24.5247C51.6633 24.4418 52.0179 24.3788 52.3792 24.3358C52.8366 24.2827 53.2078 24.2396 53.4928 24.2065C53.7778 24.17 53.985 24.112 54.1143 24.0325C54.2435 23.9529 54.3081 23.8237 54.3081 23.6447V23.6099C54.3081 23.1757 54.1855 22.8393 53.9403 22.6007C53.6983 22.362 53.337 22.2427 52.8564 22.2427C52.356 22.2427 51.9616 22.3538 51.6732 22.5758C51.3882 22.7946 51.191 23.0382 51.0816 23.3066L49.6846 22.9885C49.8503 22.5244 50.0922 22.1499 50.4104 21.8649C50.7319 21.5765 51.1015 21.3677 51.5191 21.2385C51.9367 21.1059 52.3759 21.0396 52.8366 21.0396C53.1415 21.0396 53.4646 21.0761 53.806 21.149C54.1507 21.2186 54.4722 21.3478 54.7705 21.5368C55.0721 21.7257 55.319 21.9958 55.5113 22.3471C55.7035 22.6951 55.7996 23.1475 55.7996 23.7044V28.7754H54.3479V27.7314H54.2883C54.1921 27.9236 54.048 28.1125 53.8557 28.2981C53.6635 28.4837 53.4166 28.6378 53.115 28.7605C52.8134 28.8831 52.4521 28.9444 52.0312 28.9444ZM52.3543 27.7512C52.7653 27.7512 53.1166 27.67 53.4083 27.5076C53.7033 27.3452 53.927 27.1331 54.0795 26.8713C54.2352 26.6061 54.3131 26.3227 54.3131 26.0211V25.0368C54.2601 25.0898 54.1573 25.1395 54.0049 25.1859C53.8557 25.229 53.685 25.2671 53.4928 25.3002C53.3006 25.3301 53.1133 25.3583 52.931 25.3848C52.7487 25.408 52.5963 25.4279 52.4736 25.4444C52.1853 25.4809 51.9218 25.5422 51.6831 25.6284C51.4478 25.7145 51.2589 25.8388 51.1164 26.0012C50.9772 26.1603 50.9076 26.3725 50.9076 26.6376C50.9076 27.0055 51.0435 27.2839 51.3153 27.4728C51.587 27.6584 51.9334 27.7512 52.3543 27.7512ZM59.2661 18.5936V28.7754H57.7796V18.5936H59.2661ZM64.5571 28.9295C63.8047 28.9295 63.1568 28.7688 62.6132 28.4473C62.0729 28.1225 61.6553 27.6667 61.3604 27.0801C61.0687 26.4901 60.9229 25.7991 60.9229 25.0069C60.9229 24.2247 61.0687 23.5353 61.3604 22.9387C61.6553 22.3422 62.0663 21.8765 62.5933 21.5417C63.1236 21.207 63.7434 21.0396 64.4527 21.0396C64.8836 21.0396 65.3012 21.1109 65.7055 21.2534C66.1099 21.3959 66.4728 21.6196 66.7943 21.9245C67.1158 22.2295 67.3693 22.6255 67.555 23.1127C67.7406 23.5967 67.8334 24.185 67.8334 24.8777V25.4047H61.7631V24.291H66.3767C66.3767 23.8999 66.2971 23.5536 66.1381 23.252C65.979 22.947 65.7552 22.7067 65.4669 22.5311C65.1818 22.3554 64.8471 22.2676 64.4626 22.2676C64.045 22.2676 63.6804 22.3703 63.3689 22.5758C63.0606 22.778 62.822 23.0431 62.653 23.3713C62.4872 23.6961 62.4044 24.0491 62.4044 24.4302V25.3002C62.4044 25.8107 62.4939 26.2449 62.6729 26.6028C62.8551 26.9608 63.1087 27.2342 63.4335 27.4231C63.7583 27.6087 64.1378 27.7015 64.572 27.7015C64.8537 27.7015 65.1106 27.6618 65.3426 27.5822C65.5746 27.4993 65.7751 27.3767 65.9442 27.2143C66.1132 27.0519 66.2425 26.8514 66.3319 26.6127L67.7389 26.8663C67.6262 27.2806 67.424 27.6435 67.1324 27.9551C66.844 28.2633 66.4811 28.5036 66.0436 28.676C65.6094 28.845 65.1139 28.9295 64.5571 28.9295ZM75.205 23.0034L73.8577 23.242C73.8013 23.0697 73.7119 22.9056 73.5892 22.7498C73.4699 22.594 73.3075 22.4664 73.102 22.367C72.8965 22.2676 72.6396 22.2179 72.3314 22.2179C71.9105 22.2179 71.5592 22.3123 71.2774 22.5012C70.9957 22.6868 70.8548 22.9271 70.8548 23.2221C70.8548 23.4773 70.9493 23.6828 71.1382 23.8386C71.3271 23.9944 71.6321 24.122 72.053 24.2214L73.2661 24.4998C73.9687 24.6622 74.4924 24.9125 74.8371 25.2505C75.1818 25.5886 75.3541 26.0278 75.3541 26.568C75.3541 27.0254 75.2216 27.4331 74.9564 27.791C74.6946 28.1457 74.3283 28.4241 73.8577 28.6262C73.3904 28.8284 72.8485 28.9295 72.232 28.9295C71.3769 28.9295 70.6792 28.7472 70.1389 28.3826C69.5987 28.0147 69.2673 27.4927 69.1446 26.8166L70.5814 26.5978C70.6709 26.9724 70.8548 27.2557 71.1333 27.448C71.4117 27.6369 71.7746 27.7314 72.222 27.7314C72.7093 27.7314 73.0987 27.6303 73.3904 27.4281C73.682 27.2226 73.8279 26.9724 73.8279 26.6774C73.8279 26.4387 73.7384 26.2382 73.5594 26.0758C73.3837 25.9134 73.1136 25.7908 72.749 25.7079L71.4564 25.4245C70.7438 25.2621 70.2168 25.0036 69.8754 24.649C69.5374 24.2943 69.3683 23.8452 69.3683 23.3017C69.3683 22.8509 69.4943 22.4565 69.7462 22.1184C69.9981 21.7804 70.3461 21.5169 70.7902 21.3279C71.2343 21.1357 71.7431 21.0396 72.3165 21.0396C73.1418 21.0396 73.7914 21.2186 74.2654 21.5765C74.7393 21.9312 75.0525 22.4068 75.205 23.0034ZM83.6567 28.9196C82.9739 28.9196 82.3856 28.7953 81.8918 28.5467C81.4012 28.2981 81.0234 27.96 80.7583 27.5325C80.4931 27.1016 80.3605 26.6144 80.3605 26.0708C80.3605 25.6565 80.4467 25.2886 80.6191 24.9672C80.7914 24.6423 81.0317 24.3424 81.3399 24.0673C81.6482 23.7922 82.0045 23.5154 82.4088 23.237L84.0494 22.0787C84.3279 21.8964 84.545 21.7041 84.7007 21.502C84.8565 21.2965 84.9344 21.0429 84.9344 20.7413C84.9344 20.5027 84.8316 20.274 84.6262 20.0552C84.4207 19.8365 84.1456 19.7271 83.8009 19.7271C83.5622 19.7271 83.3518 19.7851 83.1695 19.9011C82.9905 20.0171 82.8496 20.1663 82.7469 20.3485C82.6475 20.5275 82.5977 20.7164 82.5977 20.9153C82.5977 21.1473 82.6607 21.381 82.7867 21.6163C82.9159 21.8516 83.0816 22.0952 83.2838 22.3471C83.486 22.5957 83.6981 22.8542 83.9202 23.1227L88.6482 28.7754H86.9678L83.0551 24.1767C82.727 23.7889 82.4221 23.4243 82.1404 23.0829C81.8586 22.7382 81.6299 22.3902 81.4543 22.0389C81.2819 21.6842 81.1958 21.3014 81.1958 20.8904C81.1958 20.4231 81.3018 20.0088 81.5139 19.6475C81.7294 19.283 82.0293 18.9979 82.4138 18.7924C82.7983 18.5869 83.249 18.4842 83.7661 18.4842C84.2897 18.4842 84.7388 18.5869 85.1134 18.7924C85.4912 18.9946 85.7812 19.2647 85.9834 19.6028C86.1889 19.9376 86.2916 20.3038 86.2916 20.7015C86.2916 21.1854 86.1707 21.613 85.9287 21.9842C85.6901 22.3521 85.3603 22.6902 84.9394 22.9984L82.896 24.5048C82.4983 24.7965 82.2216 25.0848 82.0658 25.3699C81.9133 25.6516 81.8371 25.872 81.8371 26.0311C81.8371 26.3227 81.9117 26.5929 82.0608 26.8414C82.2133 27.09 82.4254 27.2889 82.6972 27.438C82.9723 27.5872 83.2938 27.6618 83.6617 27.6618C84.0395 27.6618 84.4074 27.5806 84.7654 27.4181C85.1266 27.2524 85.4531 27.0154 85.7448 26.7072C86.0397 26.399 86.2734 26.0294 86.4458 25.5985C86.6181 25.1677 86.7043 24.6854 86.7043 24.1518H88.0466C88.0466 24.8081 87.972 25.3632 87.8229 25.8173C87.6737 26.2681 87.4931 26.6359 87.281 26.921C87.0722 27.2027 86.875 27.4231 86.6894 27.5822C86.6297 27.6352 86.5734 27.6883 86.5203 27.7413C86.4673 27.7943 86.411 27.8474 86.3513 27.9004C86.0066 28.2484 85.589 28.5053 85.0985 28.671C84.6112 28.8367 84.1307 28.9196 83.6567 28.9196ZM93.6372 18.5936H95.5015L98.743 26.5083H98.8623L102.104 18.5936H103.968V28.7754H102.506V21.4075H102.412L99.4092 28.7605H98.1961L95.1933 21.4025H95.0988V28.7754H93.6372V18.5936ZM108.305 28.9444C107.821 28.9444 107.383 28.8549 106.992 28.676C106.601 28.4937 106.291 28.2302 106.062 27.8855C105.837 27.5408 105.724 27.1182 105.724 26.6177C105.724 26.1868 105.807 25.8322 105.973 25.5538C106.139 25.2754 106.362 25.055 106.644 24.8926C106.926 24.7302 107.241 24.6075 107.589 24.5247C107.937 24.4418 108.291 24.3788 108.653 24.3358C109.11 24.2827 109.481 24.2396 109.766 24.2065C110.051 24.17 110.258 24.112 110.388 24.0325C110.517 23.9529 110.582 23.8237 110.582 23.6447V23.6099C110.582 23.1757 110.459 22.8393 110.214 22.6007C109.972 22.362 109.61 22.2427 109.13 22.2427C108.629 22.2427 108.235 22.3538 107.947 22.5758C107.662 22.7946 107.464 23.0382 107.355 23.3066L105.958 22.9885C106.124 22.5244 106.366 22.1499 106.684 21.8649C107.005 21.5765 107.375 21.3677 107.793 21.2385C108.21 21.1059 108.649 21.0396 109.11 21.0396C109.415 21.0396 109.738 21.0761 110.079 21.149C110.424 21.2186 110.746 21.3478 111.044 21.5368C111.346 21.7257 111.592 21.9958 111.785 22.3471C111.977 22.6951 112.073 23.1475 112.073 23.7044V28.7754H110.621V27.7314H110.562C110.466 27.9236 110.321 28.1125 110.129 28.2981C109.937 28.4837 109.69 28.6378 109.388 28.7605C109.087 28.8831 108.726 28.9444 108.305 28.9444ZM108.628 27.7512C109.039 27.7512 109.39 27.67 109.682 27.5076C109.977 27.3452 110.2 27.1331 110.353 26.8713C110.509 26.6061 110.587 26.3227 110.587 26.0211V25.0368C110.534 25.0898 110.431 25.1395 110.278 25.1859C110.129 25.229 109.958 25.2671 109.766 25.3002C109.574 25.3301 109.387 25.3583 109.204 25.3848C109.022 25.408 108.87 25.4279 108.747 25.4444C108.459 25.4809 108.195 25.5422 107.957 25.6284C107.721 25.7145 107.532 25.8388 107.39 26.0012C107.251 26.1603 107.181 26.3725 107.181 26.6376C107.181 27.0055 107.317 27.2839 107.589 27.4728C107.86 27.6584 108.207 27.7512 108.628 27.7512ZM114.053 28.7754V21.139H115.49V22.3521H115.569C115.709 21.9411 115.954 21.618 116.305 21.3826C116.66 21.144 117.061 21.0247 117.508 21.0247C117.601 21.0247 117.71 21.028 117.836 21.0346C117.966 21.0413 118.067 21.0495 118.14 21.0595V22.4814C118.08 22.4648 117.974 22.4466 117.821 22.4267C117.669 22.4035 117.517 22.3919 117.364 22.3919C117.013 22.3919 116.7 22.4664 116.424 22.6156C116.153 22.7614 115.937 22.9653 115.778 23.2271C115.619 23.4856 115.54 23.7806 115.54 24.112V28.7754H114.053ZM120.793 26.1852L120.783 24.3706H121.042L124.084 21.139H125.864L122.394 24.818H122.16L120.793 26.1852ZM119.426 28.7754V18.5936H120.913V28.7754H119.426ZM124.248 28.7754L121.514 25.1461L122.538 24.1071L126.073 28.7754H124.248ZM130.196 28.9295C129.443 28.9295 128.795 28.7688 128.252 28.4473C127.712 28.1225 127.294 27.6667 126.999 27.0801C126.707 26.4901 126.562 25.7991 126.562 25.0069C126.562 24.2247 126.707 23.5353 126.999 22.9387C127.294 22.3422 127.705 21.8765 128.232 21.5417C128.762 21.207 129.382 21.0396 130.091 21.0396C130.522 21.0396 130.94 21.1109 131.344 21.2534C131.749 21.3959 132.111 21.6196 132.433 21.9245C132.754 22.2295 133.008 22.6255 133.194 23.1127C133.379 23.5967 133.472 24.185 133.472 24.8777V25.4047H127.402V24.291H132.015C132.015 23.8999 131.936 23.5536 131.777 23.252C131.618 22.947 131.394 22.7067 131.106 22.5311C130.821 22.3554 130.486 22.2676 130.101 22.2676C129.684 22.2676 129.319 22.3703 129.008 22.5758C128.699 22.778 128.461 23.0431 128.292 23.3713C128.126 23.6961 128.043 24.0491 128.043 24.4302V25.3002C128.043 25.8107 128.133 26.2449 128.312 26.6028C128.494 26.9608 128.747 27.2342 129.072 27.4231C129.397 27.6087 129.776 27.7015 130.211 27.7015C130.492 27.7015 130.749 27.6618 130.981 27.5822C131.213 27.4993 131.414 27.3767 131.583 27.2143C131.752 27.0519 131.881 26.8514 131.971 26.6127L133.378 26.8663C133.265 27.2806 133.063 27.6435 132.771 27.9551C132.483 28.2633 132.12 28.5036 131.682 28.676C131.248 28.845 130.753 28.9295 130.196 28.9295ZM138.686 21.139V22.3322H134.515V21.139H138.686ZM135.633 19.3095H137.12V26.5332C137.12 26.8216 137.163 27.0386 137.249 27.1845C137.335 27.327 137.446 27.4248 137.582 27.4778C137.722 27.5275 137.872 27.5524 138.035 27.5524C138.154 27.5524 138.258 27.5441 138.348 27.5275C138.437 27.5109 138.507 27.4977 138.557 27.4877L138.825 28.7157C138.739 28.7489 138.616 28.782 138.457 28.8152C138.298 28.8516 138.099 28.8715 137.861 28.8748C137.47 28.8815 137.105 28.8118 136.767 28.666C136.429 28.5202 136.155 28.2948 135.947 27.9899C135.738 27.685 135.633 27.3021 135.633 26.8414V19.3095ZM140.33 28.7754V21.139H141.817V28.7754H140.33ZM141.081 19.9608C140.823 19.9608 140.6 19.8746 140.415 19.7022C140.233 19.5266 140.141 19.3178 140.141 19.0758C140.141 18.8306 140.233 18.6217 140.415 18.4494C140.6 18.2737 140.823 18.1859 141.081 18.1859C141.34 18.1859 141.56 18.2737 141.742 18.4494C141.928 18.6217 142.021 18.8306 142.021 19.0758C142.021 19.3178 141.928 19.5266 141.742 19.7022C141.56 19.8746 141.34 19.9608 141.081 19.9608ZM145.303 24.2413V28.7754H143.817V21.139H145.244V22.3819H145.338C145.514 21.9776 145.789 21.6528 146.163 21.4075C146.541 21.1622 147.017 21.0396 147.59 21.0396C148.11 21.0396 148.566 21.149 148.957 21.3677C149.348 21.5832 149.652 21.9047 149.867 22.3322C150.083 22.7598 150.19 23.2884 150.19 23.9181V28.7754H148.704V24.0971C148.704 23.5436 148.56 23.1111 148.271 22.7995C147.983 22.4847 147.587 22.3272 147.083 22.3272C146.738 22.3272 146.432 22.4018 146.163 22.551C145.898 22.7001 145.688 22.9189 145.532 23.2072C145.379 23.4922 145.303 23.8369 145.303 24.2413ZM155.386 31.7981C154.779 31.7981 154.257 31.7186 153.82 31.5595C153.385 31.4004 153.031 31.1899 152.756 30.9281C152.48 30.6663 152.275 30.3796 152.139 30.068L153.417 29.541C153.506 29.6868 153.626 29.841 153.775 30.0034C153.927 30.1691 154.133 30.31 154.391 30.426C154.653 30.542 154.989 30.6 155.4 30.6C155.964 30.6 156.43 30.4624 156.797 30.1873C157.165 29.9155 157.349 29.4814 157.349 28.8848V27.3833H157.255C157.165 27.5458 157.036 27.7264 156.867 27.9252C156.701 28.1241 156.473 28.2965 156.181 28.4423C155.889 28.5881 155.51 28.661 155.043 28.661C154.439 28.661 153.896 28.5202 153.412 28.2385C152.931 27.9534 152.55 27.5342 152.268 26.9806C151.99 26.4238 151.851 25.7394 151.851 24.9274C151.851 24.1154 151.988 23.4193 152.263 22.8393C152.542 22.2593 152.923 21.8152 153.407 21.5069C153.891 21.1954 154.439 21.0396 155.052 21.0396C155.526 21.0396 155.909 21.1191 156.201 21.2782C156.493 21.434 156.72 21.6163 156.882 21.8251C157.048 22.0339 157.175 22.2179 157.265 22.377H157.374V21.139H158.831V28.9444C158.831 29.6007 158.678 30.1393 158.373 30.5602C158.069 30.9811 157.656 31.2927 157.136 31.4949C156.619 31.697 156.035 31.7981 155.386 31.7981ZM155.371 27.4281C155.798 27.4281 156.159 27.3287 156.454 27.1298C156.753 26.9276 156.978 26.6393 157.131 26.2647C157.286 25.8869 157.364 25.4345 157.364 24.9075C157.364 24.3938 157.288 23.9413 157.136 23.5502C156.983 23.1592 156.759 22.8542 156.464 22.6355C156.169 22.4134 155.805 22.3024 155.371 22.3024C154.923 22.3024 154.55 22.4184 154.252 22.6504C153.954 22.8791 153.728 23.1906 153.576 23.585C153.427 23.9795 153.352 24.4203 153.352 24.9075C153.352 25.408 153.428 25.8471 153.581 26.225C153.733 26.6028 153.959 26.8978 154.257 27.1099C154.559 27.322 154.93 27.4281 155.371 27.4281Z" fill="#14142B"/>
<mask id="mask0_37_5229" style="mask-type:alpha" maskUnits="userSpaceOnUse" x="11" y="14" width="21" height="20">
<rect x="11.6367" y="14" width="20" height="20" fill="#D9D9D9"/>
</mask>
<g mask="url(#mask0_37_5229)">
<path d="M15.8034 31.5C15.3451 31.5 14.9527 31.3368 14.6263 31.0104C14.2999 30.684 14.1367 30.2917 14.1367 29.8333V18.1667C14.1367 17.7083 14.2999 17.316 14.6263 16.9896C14.9527 16.6632 15.3451 16.5 15.8034 16.5H27.4701C27.9284 16.5 28.3207 16.6632 28.6471 16.9896C28.9735 17.316 29.1367 17.7083 29.1367 18.1667V29.8333C29.1367 30.2917 28.9735 30.684 28.6471 31.0104C28.3207 31.3368 27.9284 31.5 27.4701 31.5H15.8034ZM15.8034 28.125V29.8333H27.4701V22.5417L22.5117 28.1667L19.1367 24.7917L15.8034 28.125ZM15.8034 25.75L19.1367 22.4167L22.4284 25.7083L27.4701 20.0417V18.1667H15.8034V25.75ZM15.8034 22.5417V20.0417V25.7083V22.4167V28.125V24.7917V28.1667V22.5417ZM15.8034 25.75V18.1667V25.7083V22.4167V25.75ZM15.8034 28.125V24.7917V28.1667V22.5417V29.8333V28.125Z" fill="#1C1B1F"/>
</g>
<defs>
<filter id="filter0_b_37_5229" x="-24.3633" y="-24.1987" width="220.861" height="95.8555" filterUnits="userSpaceOnUse" color-interpolation-filters="sRGB">
<feFlood flood-opacity="0" result="BackgroundImageFix"/>
<feGaussianBlur in="BackgroundImageFix" stdDeviation="12.5"/>
<feComposite in2="SourceAlpha" operator="in" result="effect1_backgroundBlur_37_5229"/>
<feBlend mode="normal" in="SourceGraphic" in2="effect1_backgroundBlur_37_5229" result="shape"/>
</filter>
</defs>
</svg>
