<svg width="24" height="24" viewBox="0 0 24 24" fill="none" xmlns="http://www.w3.org/2000/svg">
<g id="Line Lightmode/Side-Nav/Article">
<g id="Group">
<path id="description" d="M6.71256 21C6.23401 21 5.82895 20.8342 5.49737 20.5026C5.16579 20.1711 5 19.766 5 19.2874V4.71256C5 4.23401 5.16579 3.82895 5.49737 3.49737C5.82895 3.16579 6.23401 3 6.71256 3H14.2369L19.2105 7.97365V19.2874C19.2105 19.766 19.0447 20.1711 18.7131 20.5026C18.3816 20.8342 17.9765 21 17.498 21H6.71256ZM14.5263 8.68418C13.9741 8.68418 13.5263 8.23646 13.5263 7.68418V4.42103H6.71256C6.63968 4.42103 6.57286 4.4514 6.51212 4.51212C6.4514 4.57286 6.42103 4.63968 6.42103 4.71256V19.2874C6.42103 19.3603 6.4514 19.4271 6.51212 19.4879C6.57286 19.5486 6.63968 19.579 6.71256 19.579H17.498C17.5708 19.579 17.6376 19.5486 17.6984 19.4879C17.7591 19.4271 17.7895 19.3603 17.7895 19.2874V8.68418H14.5263Z" fill="#4B9EF9"/>
</g>
</g>
</svg>
