<svg width="44" height="45" viewBox="0 0 44 45" fill="none" xmlns="http://www.w3.org/2000/svg">
<rect y="0.5" width="44" height="44" rx="5" fill="#DEF5D9"/>
<g clip-path="url(#clip0_2941_7441)">
<path d="M29.1413 21.8868L22.613 15.3585C22.3677 15.1132 22.047 14.9811 21.7074 15L15.8961 15.2264C15.2734 15.2642 14.764 15.7736 14.7262 16.3962L14.4998 22.2075C14.481 22.5472 14.613 22.8679 14.8583 23.1132L21.3866 29.6415C21.8583 30.1132 22.6319 30.1132 23.1036 29.6415L29.1413 23.6038C29.613 23.1321 29.613 22.3774 29.1413 21.8868ZM28.2923 22.7547L22.2545 28.7925L15.7262 22.2453L15.9527 16.4528L21.7451 16.2264L28.2923 22.7547Z" fill="#0FA069"/>
<path d="M20.04 19.6782L19.8799 19.5181C19.6404 19.2786 19.2522 19.2786 19.0127 19.5181C18.7732 19.7575 18.7732 20.1458 19.0127 20.3853L19.1728 20.5453C19.4123 20.7848 19.8005 20.7848 20.04 20.5453C20.2795 20.3059 20.2795 19.9176 20.04 19.6782Z" fill="#0FA069"/>
</g>
<defs>
<clipPath id="clip0_2941_7441">
<rect width="15" height="15" fill="white" transform="translate(14.5 15)"/>
</clipPath>
</defs>
</svg>
