<svg width="33" height="32" viewBox="0 0 33 32" fill="none" xmlns="http://www.w3.org/2000/svg">
<path d="M12.0702 22.3158C12.0702 22.839 12.4944 23.2631 13.0176 23.2631H20.5965C21.1197 23.2631 21.5439 22.839 21.5439 22.3158C21.5439 21.7926 21.1197 21.3685 20.5965 21.3685H13.0176C12.4944 21.3685 12.0702 21.7926 12.0702 22.3158ZM12.0702 17.2632C12.0702 17.7864 12.4944 18.2105 13.0176 18.2105H20.5965C21.1197 18.2105 21.5439 17.7864 21.5439 17.2632C21.5439 16.74 21.1197 16.3158 20.5965 16.3158H13.0176C12.4944 16.3158 12.0702 16.74 12.0702 17.2632ZM9.61679 28C8.97873 28 8.43864 27.7789 7.99653 27.3368C7.55443 26.8947 7.33337 26.3546 7.33337 25.7166V6.28342C7.33337 5.64535 7.55443 5.10527 7.99653 4.66316C8.43864 4.22105 8.97873 4 9.61679 4H19.6492L26.2807 10.6315V25.7166C26.2807 26.3546 26.0597 26.8947 25.6176 27.3368C25.1755 27.7789 24.6354 28 23.9973 28H9.61679ZM19.7018 11.5789C19.1495 11.5789 18.7018 11.1312 18.7018 10.5789V5.89471H9.61679C9.51961 5.89471 9.43053 5.93519 9.34954 6.01616C9.26857 6.09715 9.22808 6.18624 9.22808 6.28342V25.7166C9.22808 25.8138 9.26857 25.9028 9.34954 25.9838C9.43053 26.0648 9.51961 26.1053 9.61679 26.1053H23.9973C24.0945 26.1053 24.1836 26.0648 24.2646 25.9838C24.3455 25.9028 24.386 25.8138 24.386 25.7166V11.5789H19.7018Z" fill="white"/>
</svg>
