<svg width="33" height="32" viewBox="0 0 33 32" fill="none" xmlns="http://www.w3.org/2000/svg">
<path d="M7.76984 28C7.1884 28 6.70592 27.8021 6.2853 27.3814C5.86469 26.9608 5.66675 26.4784 5.66675 25.8969V8.57732C5.66675 7.99588 5.86469 7.5134 6.2853 7.09278C6.70592 6.67217 7.1884 6.47423 7.76984 6.47423H9.37809V4.86598C9.37809 4.61856 9.45232 4.42062 9.62551 4.24742C9.78634 4.07423 9.98427 4 10.2441 4C10.5039 4 10.7018 4.07423 10.8626 4.24742C11.0358 4.42062 11.11 4.61856 11.11 4.86598V6.47423H21.7492V4.86598C21.7492 4.61856 21.8234 4.42062 21.9966 4.24742C22.1575 4.07423 22.3554 4 22.6152 4C22.875 4 23.0729 4.07423 23.2338 4.24742C23.407 4.42062 23.4812 4.61856 23.4812 4.86598V6.47423H25.0894C25.6709 6.47423 26.1657 6.67217 26.574 7.09278C26.9822 7.5134 27.1925 7.99588 27.1925 8.57732V25.8969C27.1925 26.4784 26.9946 26.9608 26.574 27.3814C26.1533 27.8021 25.6709 28 25.0894 28H7.76984ZM7.39871 26.268H25.4606V13.1546H7.39871V26.268ZM7.39871 11.4227H25.4606V8.20619H7.39871V11.4227ZM19.5224 23.0515C18.7554 23.0515 18.1245 22.7918 17.5925 22.2598C17.0606 21.7278 16.8008 21.0969 16.8008 20.3299C16.8008 19.5629 17.0606 18.932 17.5925 18.4C18.1245 17.868 18.7554 17.6082 19.5224 17.6082C20.2894 17.6082 20.9204 17.868 21.4523 18.4C21.9843 18.932 22.2441 19.5629 22.2441 20.3299C22.2441 21.0969 21.9843 21.7278 21.4523 22.2598C20.9204 22.7918 20.2894 23.0515 19.5224 23.0515Z" fill="#A0A3BD"/>
</svg>
