<svg width="18" height="18" viewBox="0 0 18 18" fill="none" xmlns="http://www.w3.org/2000/svg">
<g clip-path="url(#clip0_2567_24709)">
<path d="M17.1413 9.3868L10.613 2.8585C10.3677 2.61322 10.047 2.48114 9.70737 2.50001L3.89605 2.72642C3.27341 2.76416 2.76398 3.27359 2.72624 3.89623L2.49983 9.70756C2.48096 10.0472 2.61303 10.3679 2.85832 10.6132L9.38662 17.1415C9.85832 17.6132 10.6319 17.6132 11.1036 17.1415L17.1413 11.1038C17.613 10.6321 17.613 9.87737 17.1413 9.3868ZM16.2923 10.2547L10.2545 16.2925L3.72624 9.74529L3.95266 3.95284L9.74511 3.72642L16.2923 10.2547Z" fill="#14142B"/>
<path d="M8.04 7.17816L7.8799 7.01806C7.64043 6.77859 7.25217 6.77859 7.0127 7.01806C6.77323 7.25753 6.77323 7.64579 7.0127 7.88526L7.1728 8.04536C7.41227 8.28483 7.80053 8.28483 8.04 8.04536C8.27947 7.80589 8.27947 7.41763 8.04 7.17816Z" fill="#14142B"/>
</g>
<defs>
<clipPath id="clip0_2567_24709">
<rect width="15" height="15" fill="white" transform="translate(2.5 2.5)"/>
</clipPath>
</defs>
</svg>
