<svg width="33" height="32" viewBox="0 0 33 32" fill="none" xmlns="http://www.w3.org/2000/svg">
<path d="M8.33655 25.3334C7.78426 25.3334 7.33655 24.8857 7.33655 24.3334V13C7.33655 12.4478 7.78426 12 8.33655 12H10.3365C10.8888 12 11.3365 12.4478 11.3365 13V24.3334C11.3365 24.8857 10.8888 25.3334 10.3365 25.3334H8.33655ZM16.3365 25.3334C15.7843 25.3334 15.3365 24.8857 15.3365 24.3334V6.33337C15.3365 5.78109 15.7843 5.33337 16.3365 5.33337H18.3365C18.8888 5.33337 19.3365 5.78109 19.3365 6.33337V24.3334C19.3365 24.8857 18.8888 25.3334 18.3365 25.3334H16.3365ZM24.3365 25.3334C23.7843 25.3334 23.3365 24.8857 23.3365 24.3334V18.3334C23.3365 17.7811 23.7843 17.3334 24.3365 17.3334H26.3365C26.8888 17.3334 27.3365 17.7811 27.3365 18.3334V24.3334C27.3365 24.8857 26.8888 25.3334 26.3365 25.3334H24.3365Z" fill="#A0A3BD"/>
</svg>
