<svg width="32" height="32" viewBox="0 0 32 32" fill="none" xmlns="http://www.w3.org/2000/svg">
<path d="M15.4508 28C14.9286 28 14.4668 27.8624 14.0656 27.5871C13.6644 27.3118 13.3837 26.9506 13.2235 26.5034H12.8481C12.3159 26.5034 11.8575 26.3112 11.4729 25.9266C11.0883 25.5421 10.8961 25.0837 10.8961 24.5515V20.282C9.58302 19.4862 8.54986 18.4192 7.79657 17.0811C7.04327 15.7431 6.66663 14.3108 6.66663 12.7842C6.66663 10.335 7.51835 8.25862 9.22179 6.55516C10.9253 4.85172 13.0016 4 15.4508 4C17.9 4 19.9763 4.85172 21.6798 6.55516C23.3832 8.25862 24.235 10.335 24.235 12.7842C24.235 14.3375 23.8583 15.7765 23.105 17.1012C22.3517 18.4259 21.3186 19.4862 20.0055 20.282V24.5515C20.0055 25.0837 19.8132 25.5421 19.4287 25.9266C19.0441 26.3112 18.5857 26.5034 18.0535 26.5034H17.6781C17.5179 26.9506 17.2372 27.3118 16.836 27.5871C16.4347 27.8624 15.973 28 15.4508 28ZM12.8481 24.5515H18.0535V23.3302H12.8481V24.5515ZM12.8481 22.179H18.0535V20.9177H12.8481V22.179ZM12.5878 18.9656H14.675V15.1767L12.4326 12.9343C12.1313 12.633 12.1313 12.1445 12.4326 11.8432C12.7339 11.5419 13.2225 11.5419 13.5238 11.8432L15.4508 13.7702L17.3778 11.8432C17.6791 11.5419 18.1676 11.5419 18.469 11.8432C18.7703 12.1445 18.7703 12.633 18.469 12.9343L16.2266 15.1767V18.9656H18.3138C19.485 18.4017 20.4394 17.5721 21.1768 16.4768C21.9142 15.3815 22.283 14.1506 22.283 12.7842C22.283 10.8755 21.6214 9.25964 20.2984 7.93659C18.9753 6.61354 17.3595 5.95201 15.4508 5.95201C13.5421 5.95201 11.9263 6.61354 10.6032 7.93659C9.28016 9.25964 8.61864 10.8755 8.61864 12.7842C8.61864 14.1506 8.98736 15.3815 9.7248 16.4768C10.4622 17.5721 11.4166 18.4017 12.5878 18.9656Z" fill="#A0A3BD"/>
</svg>
