<svg width="32" height="32" viewBox="0 0 32 32" fill="none" xmlns="http://www.w3.org/2000/svg">
<path d="M13.1579 19.2705C13.1579 20.0615 14.0327 20.5394 14.6982 20.112L19.7909 16.8414C20.4037 16.4479 20.4037 15.5521 19.7909 15.1586L14.6982 11.888C14.0327 11.4606 13.1579 11.9385 13.1579 12.7295V19.2705ZM16.0021 28C14.3423 28 12.7823 27.6851 11.3219 27.0552C9.86151 26.4253 8.59117 25.5704 7.5109 24.4906C6.4306 23.4108 5.57536 22.141 4.94519 20.6813C4.31502 19.2215 3.99994 17.6618 3.99994 16.0021C3.99994 14.3424 4.31489 12.7824 4.94478 11.322C5.57468 9.86157 6.42952 8.59123 7.50932 7.51096C8.58913 6.43066 9.85891 5.57543 11.3187 4.94526C12.7784 4.31509 14.3381 4 15.9978 4C17.6575 4 19.2176 4.31495 20.678 4.94484C22.1384 5.57474 23.4087 6.42959 24.489 7.50938C25.5693 8.58919 26.4245 9.85897 27.0547 11.3187C27.6849 12.7785 27.9999 14.3382 27.9999 15.9979C27.9999 17.6576 27.685 19.2176 27.0551 20.678C26.4252 22.1384 25.5704 23.4088 24.4906 24.489C23.4107 25.5693 22.141 26.4246 20.6812 27.0547C19.2215 27.6849 17.6618 28 16.0021 28ZM15.9999 26.1053C18.821 26.1053 21.2105 25.1263 23.1684 23.1684C25.1263 21.2105 26.1052 18.8211 26.1052 16C26.1052 13.1789 25.1263 10.7895 23.1684 8.83156C21.2105 6.87366 18.821 5.89471 15.9999 5.89471C13.1789 5.89471 10.7894 6.87366 8.8315 8.83156C6.8736 10.7895 5.89465 13.1789 5.89465 16C5.89465 18.8211 6.8736 21.2105 8.8315 23.1684C10.7894 25.1263 13.1789 26.1053 15.9999 26.1053Z" fill="#A0A3BD"/>
</svg>
