<svg width="17" height="17" viewBox="0 0 17 17" fill="none" xmlns="http://www.w3.org/2000/svg">
<path d="M7.16669 7.12499C7.5716 7.12499 7.91588 6.98316 8.19952 6.69951C8.48317 6.41587 8.625 6.07159 8.625 5.66668C8.625 5.26176 8.48317 4.91748 8.19952 4.63384C7.91588 4.35019 7.5716 4.20836 7.16669 4.20836C6.76177 4.20836 6.41749 4.35019 6.13385 4.63384C5.8502 4.91748 5.70837 5.26176 5.70837 5.66668C5.70837 6.07159 5.8502 6.41587 6.13385 6.69951C6.41749 6.98316 6.76177 7.12499 7.16669 7.12499ZM7.17471 10.4583C7.71957 10.4583 8.23692 10.3491 8.72677 10.1306C9.21662 9.91213 9.64957 9.5999 10.0256 9.19393C9.56624 8.92257 9.09723 8.71824 8.6186 8.58095C8.13996 8.44367 7.65867 8.37503 7.17471 8.37503C6.64265 8.37503 6.13063 8.44501 5.63864 8.58497C5.14666 8.72491 4.70569 8.9279 4.31575 9.19393C4.68647 9.5999 5.11809 9.91213 5.6106 10.1306C6.10313 10.3491 6.6245 10.4583 7.17471 10.4583ZM15.4071 16.4599L11.258 12.3109C10.6672 12.782 10.0374 13.1466 9.3686 13.4046C8.69981 13.6627 7.96584 13.7917 7.16669 13.7917C5.36434 13.7917 3.83737 13.1659 2.58577 11.9143C1.33417 10.6627 0.708374 9.13569 0.708374 7.33334C0.708374 5.531 1.33417 4.00403 2.58577 2.75243C3.83737 1.50083 5.36434 0.875031 7.16669 0.875031C8.96903 0.875031 10.496 1.50083 11.7476 2.75243C12.9992 4.00403 13.625 5.531 13.625 7.33334C13.625 8.1325 13.496 8.86781 13.238 9.53928C12.98 10.2108 12.6154 10.8419 12.1442 11.4327L16.2853 15.5737L15.4071 16.4599ZM7.16669 12.5417C8.60899 12.5417 9.83763 12.0342 10.8526 11.0193C11.8676 10.0043 12.375 8.77565 12.375 7.33334C12.375 5.89104 11.8676 4.6624 10.8526 3.64743C9.83763 2.63247 8.60899 2.12499 7.16669 2.12499C5.72438 2.12499 4.49574 2.63247 3.48077 3.64743C2.46581 4.6624 1.95833 5.89104 1.95833 7.33334C1.95833 8.77565 2.46581 10.0043 3.48077 11.0193C4.49574 12.0342 5.72438 12.5417 7.16669 12.5417Z" fill="#14142B"/>
</svg>
