<svg width="16" height="13" viewBox="0 0 16 13" fill="none" xmlns="http://www.w3.org/2000/svg">
<path d="M1.79767 12.3161C1.38852 12.3161 1.0422 12.1743 0.758713 11.8908C0.475235 11.6074 0.333496 11.261 0.333496 10.8519V1.63069C0.333496 1.22155 0.475235 0.875232 0.758713 0.591741C1.0422 0.308249 1.38852 0.166504 1.79767 0.166504H11.0189C11.428 0.166504 11.7743 0.308249 12.0578 0.591741C12.3413 0.875232 12.4831 1.22155 12.4831 1.63069V5.33789L14.4799 3.34098C14.7949 3.026 15.3335 3.24908 15.3335 3.69454V8.78805C15.3335 9.2335 14.7949 9.45658 14.4799 9.1416L12.4831 7.1447V10.8519C12.4831 11.261 12.3413 11.6074 12.0578 11.8908C11.7743 12.1743 11.428 12.3161 11.0189 12.3161H1.79767ZM1.79767 11.1011H11.0189C11.0916 11.1011 11.1513 11.0778 11.198 11.031C11.2447 10.9843 11.2681 10.9246 11.2681 10.8519V1.63069C11.2681 1.558 11.2447 1.49828 11.198 1.45155C11.1513 1.40481 11.0916 1.38145 11.0189 1.38145H1.79767C1.72497 1.38145 1.66526 1.40481 1.61852 1.45155C1.57179 1.49828 1.54842 1.558 1.54842 1.63069V10.8519C1.54842 10.9246 1.57179 10.9843 1.61852 11.031C1.66526 11.0778 1.72497 11.1011 1.79767 11.1011Z" fill="#14142B"/>
</svg>
