<svg width="18" height="18" viewBox="0 0 18 18" fill="none" xmlns="http://www.w3.org/2000/svg">
<path d="M7.82873 13.2184H9.25178L9.49408 11.853C9.78383 11.7696 10.0338 11.6709 10.2441 11.5568C10.4544 11.4427 10.6608 11.2902 10.8633 11.0991L12.1787 11.5491L12.8998 10.3299L11.8556 9.44533C11.9274 9.14788 11.9633 8.8671 11.9633 8.603C11.9633 8.3389 11.9274 8.05813 11.8556 7.76068L12.8998 6.87608L12.1787 5.65688L10.8633 6.10688C10.6608 5.91585 10.4544 5.76328 10.2441 5.64918C10.0338 5.53508 9.78383 5.43636 9.49408 5.35303L9.25178 3.98765H7.82873L7.58643 5.35303C7.29668 5.43636 7.04668 5.53508 6.83643 5.64918C6.62617 5.76328 6.41975 5.91585 6.21718 6.10688L4.90181 5.65688L4.18068 6.87608L5.22491 7.76068C5.15311 8.05813 5.11721 8.3389 5.11721 8.603C5.11721 8.8671 5.15311 9.14788 5.22491 9.44533L4.18068 10.3299L4.90181 11.5491L6.21718 11.0991C6.41975 11.2902 6.62617 11.4427 6.83643 11.5568C7.04668 11.6709 7.29668 11.7696 7.58643 11.853L7.82873 13.2184ZM8.54026 10.603C7.99026 10.603 7.51943 10.4072 7.12776 10.0155C6.73609 9.62384 6.54026 9.153 6.54026 8.603C6.54026 8.053 6.73609 7.58217 7.12776 7.1905C7.51943 6.79884 7.99026 6.603 8.54026 6.603C9.09026 6.603 9.56109 6.79884 9.95276 7.1905C10.3444 7.58217 10.5403 8.053 10.5403 8.603C10.5403 9.153 10.3444 9.62384 9.95276 10.0155C9.56109 10.4072 9.09026 10.603 8.54026 10.603ZM1.84798 17.103C1.34285 17.103 0.915283 16.928 0.565283 16.578C0.215283 16.228 0.0402832 15.8004 0.0402832 15.2953V1.91073C0.0402832 1.4056 0.215283 0.978027 0.565283 0.628027C0.915283 0.278027 1.34285 0.103027 1.84798 0.103027H15.2325C15.7377 0.103027 16.1652 0.278027 16.5152 0.628027C16.8652 0.978027 17.0402 1.4056 17.0402 1.91073V15.2953C17.0402 15.8004 16.8652 16.228 16.5152 16.578C16.1652 16.928 15.7377 17.103 15.2325 17.103H1.84798ZM1.84798 15.603H15.2325C15.3095 15.603 15.38 15.571 15.4441 15.5069C15.5082 15.4427 15.5403 15.3722 15.5403 15.2953V1.91073C15.5403 1.8338 15.5082 1.76327 15.4441 1.69915C15.38 1.63505 15.3095 1.603 15.2325 1.603H1.84798C1.77105 1.603 1.70052 1.63505 1.63641 1.69915C1.57231 1.76327 1.54026 1.8338 1.54026 1.91073V15.2953C1.54026 15.3722 1.57231 15.4427 1.63641 15.5069C1.70052 15.571 1.77105 15.603 1.84798 15.603Z" fill="#14142B"/>
</svg>
